<svg  xmlns="http://www.w3.org/2000/svg" xmlns:xlink="http://www.w3.org/1999/xlink" width="936" height="300" viewBox="0 0 960 324"><path transform="translate(0 100)" d="M52.4,-59.1L52.5,-75.6C52.5,-78.7 47.1,-78.8 47.1,-75.6L47.2,-59.1C39,-59.1 30.8,-59 23.1,-58.8C16.7,-58.6 12.9,-54.2 12.6,-49.4C12.4,-44.3 12.4,-38.4 12.6,-32.9C12.9,-27.7 16.8,-23.7 23.4,-23.4C31.2,-23.1 39.2,-23 47.2,-22.9L47.1,6.5C47.1,9.5 52.5,9.4 52.5,6.5L52.4,-22.9C60.4,-22.9 68.4,-23.1 76.4,-23.4C82.9,-23.8 86.8,-27.9 87,-33C87.3,-38.6 87.4,-44.9 87,-50.1C86.7,-54.8 82.9,-58.7 77,-58.8C69.1,-59 60.8,-59.1 52.4,-59.1ZM52.4,-27.8L52.4,-54.3C60.5,-54.3 68.5,-54.2 74.8,-54C79.9,-53.8 81.7,-51.2 81.9,-47.6C82.1,-43.9 81.9,-38.4 81.9,-34.7C81.9,-31 79.4,-28.5 74.9,-28.3C68.1,-28 60.2,-27.8 52.4,-27.8ZM47.2,-27.8C39.2,-27.8 31.4,-28 25,-28.3C20,-28.5 18.1,-30.4 17.8,-34.7C17.6,-38.3 17.6,-44 17.8,-47.5C18,-51.2 20.8,-53.9 24.9,-54C31,-54.2 39,-54.3 47.2,-54.3L47.2,-27.8Z"></path><path transform="translate(100 100)" d="M71,-54.1L88.6,-53.9C91.6,-53.8 91.5,-58.8 88.5,-58.7L52.9,-58.6L53,-75.5C53,-78.6 47.3,-78.7 47.3,-75.5L47.4,-58.6L11.4,-58.7C8.3,-58.8 8.1,-53.9 11.4,-53.9L65.5,-54.1C62.6,-40.5 57.1,-29.4 49.7,-20.8C42.4,-28.7 37,-38.3 33.9,-49.2C32.9,-51.9 27.8,-50.6 29.1,-46.8C32.6,-35.2 38.2,-25.1 46,-16.7C36.1,-6.9 23.7,-0.6 10.2,2.6C6,3.4 7.7,8.8 11.6,7.9C26.7,4.4 39.7,-2.8 49.8,-12.9C59.6,-3.9 72.4,2.7 88.1,6.5C92.3,7.4 94,1.5 89.7,0.8C75.4,-1.9 63.2,-8.1 53.6,-16.9C62.4,-27.1 68.5,-39.8 71,-54.1Z"></path><path transform="translate(200 100)" d="M68,-67.9C69.6,-67.8 71.2,-67.8 72.7,-67.8C78.2,-67.7 81.2,-65.9 81.4,-60C81.8,-43.1 81.8,-21.2 81.8,-5.4C81.7,2.9 76.4,3.2 64.8,1.4C61.6,0.9 61,6.1 64.4,6.6C82.9,9.6 87.3,3.4 87.2,-4.8L87.1,-14.1C86.9,-27.4 87,-44.8 86.7,-61.5C86.5,-68.6 81.7,-72.1 75,-72.2C57.6,-72.5 41.5,-72.5 25.7,-72.2C17.7,-72.1 13.7,-67.7 13.7,-61.4C13.4,-39.4 13.3,-16.2 13.1,6.3C13.1,9.8 18.6,9.8 18.6,6.4C18.6,-16.1 18.5,-39.9 18.9,-59.9C19,-65.3 21.7,-67.7 27.9,-67.8C31.3,-67.8 34.9,-67.9 38.6,-67.9L38.6,-67.8C38.6,-60.5 38.1,-52.2 36.8,-43.9C33.5,-46.2 30.1,-48.2 27.1,-49.9C24.3,-51.5 22,-47.8 24.7,-46.3C27.9,-44.5 32,-41.9 35.9,-39.1C33.6,-27.7 29.6,-16.7 22.9,-8.8C20.9,-6.2 24.7,-3.2 27.3,-6.2C33.6,-13.6 37.6,-24.4 40,-35.9C43.5,-33.1 46.5,-30.1 48.5,-27.2C50.5,-24.3 54.9,-27.6 52.1,-30.8C49,-34.3 45.1,-37.8 41,-40.9C42.6,-50.2 43.3,-59.7 43.4,-67.9L63.2,-67.9C63.3,-60.8 62.8,-52.4 61.5,-43.8C58.2,-46.2 55,-48.3 52.1,-50.1C49.8,-51.6 47.1,-48.1 49.7,-46.6C52.8,-44.7 56.8,-42 60.6,-39C58.3,-27.8 54.4,-16.7 47.6,-8.5C45.5,-5.9 49.6,-2.9 52.1,-6C58.3,-13.5 62.3,-24.2 64.7,-35.5C67.9,-32.6 70.8,-29.5 72.7,-26.6C74.6,-23.7 79,-26.7 76.4,-30.1C73.5,-33.8 69.7,-37.3 65.6,-40.6C67.2,-50 67.9,-59.5 68,-67.9Z"></path><path transform="translate(300 100)" d="M59.7,-21.3L90,-21.3C92.9,-21.3 92.9,-26 90,-26L58.3,-25.7C57.3,-28 56,-30.2 54.4,-32C57.8,-34 65.4,-39.2 68.2,-42.2C71.7,-45.9 71.2,-51.6 63.7,-51.8C55.9,-51.9 39.9,-52 29.6,-51.7C26.4,-51.6 26.4,-47.1 29.6,-47.2C39.3,-47.4 57.7,-47.6 61.9,-47.5C64.7,-47.4 65.2,-46.2 63.3,-44.2C61.8,-42.6 54.4,-37 51.1,-35.1C49.7,-36.1 48.1,-36.9 46.4,-37.5C43.6,-38.5 40.5,-34.9 44.1,-33.5C48.1,-32 51,-29.2 52.9,-25.7L10.1,-25.8C7.2,-25.8 7,-21.1 10.2,-21.1L54.7,-21.3C56.5,-15.3 56,-8.4 53.6,-3.2C49.9,5 41.3,4.5 34.7,2.5C31.4,1.5 29.6,6.9 33.8,7.8C43.9,10.1 54.3,8.8 58.7,-1.9C61,-7.5 61.4,-14.7 59.7,-21.3ZM52.9,-66L53,-76.3C53,-79.4 47.3,-79.4 47.3,-76.3L47.4,-66C39.6,-66 31.7,-66 23.2,-65.9C15.9,-65.9 12.7,-62.1 12.6,-56.9L12.6,-47.4C12.7,-44.1 18,-44.2 18,-47.3C18,-49.2 17.9,-54.4 18,-55.8C18.1,-59.7 20,-61.5 24.7,-61.5C38.6,-61.7 60,-61.7 74.9,-61.5C79.3,-61.5 81.5,-59.8 81.6,-55.7L81.6,-47.6C81.4,-44.3 86.9,-44.3 87.1,-47.7L87.1,-56.8C87,-61.6 83.3,-65.9 76.7,-65.9C68.3,-66 60.6,-66 52.9,-66Z"></path><path transform="translate(400 100)" d="M45.8,-7.8C45.2,-8.9 43.8,-9.6 42.4,-8.4C40.6,-6.8 35.6,-3.5 32,-1.7C31.1,-1.2 30.6,-1.3 30.6,-2.3C30.4,-13.1 30.5,-26.4 30.7,-37C30.8,-43.9 29.5,-46.6 22.2,-46.9C18.7,-47.1 11.5,-47.1 8.1,-46.8C6.4,-46.7 5.8,-45.6 5.9,-44.4C5.9,-43.2 6.7,-41.9 8.1,-42C11.7,-42.2 18.5,-42.2 22.2,-42.1C25.1,-42 25.6,-40 25.5,-37.5C25.3,-25.7 25.2,-11.5 25.4,-0.2C25.6,4.2 28.3,5.8 33,3.5C36.9,1.6 42.6,-2.1 44.9,-4.1C46.3,-5.3 46.5,-6.9 45.8,-7.8ZM36.1,-60.4C37.1,-61.4 37.1,-62.8 36,-64.2C33.3,-67.5 24.7,-73.6 20.7,-75.3C19.4,-75.8 18.1,-75.4 17.4,-74.4C16.7,-73.4 16.8,-72.3 18.1,-71.5C23,-68.4 28.1,-64.9 32.1,-60.4C33.4,-59 34.9,-59.2 36.1,-60.4ZM69.2,-40.6L91.7,-40.6C93.3,-40.6 94.1,-41.8 94.1,-42.9C94,-44.1 93.2,-45.4 91.7,-45.4L69.2,-45.4L69.2,-75C69.2,-76.6 67.7,-77.4 66.4,-77.4C64.9,-77.4 63.6,-76.5 63.6,-75L63.6,-45.4L39.7,-45.4C38.3,-45.4 37.6,-44.2 37.6,-43C37.6,-41.9 38.4,-40.6 39.7,-40.6L63.6,-40.6L63.6,5.9C63.6,7.6 65,8.5 66.4,8.5C67.8,8.5 69.2,7.7 69.2,5.9L69.2,-40.6Z"></path><path transform="translate(500 100)" d="M48.1,-63.1C45.9,-66 40.1,-70.2 36.8,-71.2C35.2,-71.7 34.1,-71.3 33.6,-70.1C33.1,-68.9 33.3,-68 34.4,-67.5C38.9,-65 42.2,-62.2 44.6,-59.1C45.8,-57.8 47.2,-58 48.1,-59.2C48.9,-60.1 49.2,-61.7 48.1,-63.1ZM68.5,-68.6C68.5,-70.2 67.2,-71 66.1,-71C64.8,-71 63.5,-70.2 63.5,-68.6L63.5,-14.4C63.5,-12.9 64.5,-12.2 66.1,-12.2C67.5,-12.2 68.5,-12.9 68.5,-14.4L68.5,-68.6ZM87.7,-74.8C87.7,-76.6 86.3,-77.4 85.2,-77.4C83.9,-77.4 82.6,-76.4 82.6,-74.8L82.6,-4.3C82.6,0.7 80.2,2.7 76.7,2.8C74.2,3.1 71.2,2.5 68.1,1.7C66.2,1.2 65.2,2.5 65,3.8C64.8,5 65.6,6.6 67.4,6.9C71.1,7.7 74.4,8.1 77.2,7.8C84.2,7.3 87.7,3.5 87.7,-3.9L87.7,-74.8ZM35.9,-10.9C42.5,-18.5 47.8,-27.4 50.4,-35.9C50.9,-37.6 50.5,-38.6 49.1,-39.2C47.6,-39.9 46.1,-39.5 45.6,-37.9C43.1,-30 39,-22.5 33.9,-15.9C31.4,-22.8 29.8,-30.5 28.8,-37.4C28.4,-40.1 28.1,-42.9 27.9,-45.6L53.3,-48.9C54.9,-49.1 55.5,-50.1 55.3,-51.5C55.1,-52.7 54.1,-53.6 52.8,-53.4L27.5,-50.1C27,-58.3 26.9,-66.4 27,-74.4C27,-76.4 25.8,-77.3 24.3,-77.3C23,-77.2 21.8,-76.2 21.8,-74.7C21.7,-66.4 21.9,-57.9 22.5,-49.5L8.7,-47.7C7.1,-47.5 6.4,-46.5 6.5,-45.2C6.7,-44 7.6,-43 9,-43.2L22.9,-45C23.2,-42.2 23.6,-39.3 24,-36.5C25.1,-28.3 27.1,-19.4 30.1,-11.6C24.1,-5.3 16.8,-0.4 8.5,3C6.5,3.8 6.1,5.3 6.8,6.7C7.4,8 8.8,8.5 10.6,7.8C18.3,5 25.8,-0.3 32.2,-6.8C33.8,-3.5 35.6,-0.5 37.6,2C40.4,5.4 43.8,6.9 47.3,6.9C50.5,6.9 53.8,5 55.8,1.3C57.2,-0.9 58.1,-3.8 58.8,-7.4C59.2,-9.4 58.3,-10.6 56.8,-10.9C55.3,-11.1 53.9,-10.5 53.6,-8.9C53.1,-6.3 52.5,-3.9 51.7,-2.2C50,1.7 45.9,3.1 42.3,-0.7C39.8,-3.4 37.7,-6.9 35.9,-10.9Z"></path><path transform="translate(0 200)" d="M56.8,-64.4C60.8,-64.2 60.8,-70.3 56.7,-70.2C43.9,-69.9 17.8,-70 6.6,-70.2C2.2,-70.3 2.1,-64.4 6.6,-64.4C13.8,-64.4 22.7,-64.8 26.8,-64.4C28.1,-64.2 28.2,-63.8 28.2,-62.9C28.5,-49.2 28.3,-14.2 28,-0.8C27.9,3.5 35.1,3.5 35,-0.8C34.8,-14.7 34.4,-47.2 34.8,-62.9C34.8,-64.2 35.4,-64.3 36.4,-64.4C38.7,-64.5 47.3,-64.7 56.8,-64.4Z"></path><path transform="translate(63 200)" d="M47.7,-0.4C48,-7.5 47.8,-23.8 47.6,-28.9C47,-47.1 24.8,-49.2 16.1,-38.2C15.7,-37.7 15.5,-37.8 15.5,-38.3C15.5,-40.5 15.6,-64.1 15.6,-67.8C15.6,-71.7 9.6,-71.3 9.6,-68C9.8,-56.9 9.7,-13.6 9.4,-0.3C9.3,3.4 15.4,3.7 15.4,-0.2C15.2,-11.7 15.3,-22 15.5,-26.5C15.8,-33.5 22,-38.5 28.5,-39.3C34.8,-40.2 41.3,-37 41.8,-27.8C42,-23.7 41.9,-7.2 41.8,-0.3C41.7,3.3 47.6,3.8 47.7,-0.4Z"></path><path transform="translate(119 200)" d="M47,-4.7C49.8,-7.7 45.2,-11.6 42.9,-8.8C39.8,-5.3 35.7,-2.2 28.4,-2.2C18.8,-2.2 11.6,-8.9 11.6,-19.8C11.6,-21.2 11.8,-21.6 12.8,-21.6C16.1,-21.6 33.6,-21.4 40.4,-21.6C47.2,-21.9 49.1,-26.9 46.8,-32.8C44.4,-39 38,-44.7 28,-44.7C16.2,-44.7 5.7,-35.1 5.7,-20.5C5.7,-6.4 15.6,3.1 28.3,3.1C37,3.1 43,-0.3 47,-4.7ZM41.3,-31.5C42.3,-28.8 41.9,-26.7 38.5,-26.5C32.9,-26.3 16.3,-26.3 13.4,-26.5C12.7,-26.6 12.2,-26.8 12.5,-28.2C14.3,-35 21.1,-39.7 28.1,-39.7C36,-39.7 39.9,-35.2 41.3,-31.5Z"></path><path transform="translate(172 200)" d=""></path><path transform="translate(202 200)" d="M34.7,-28.5C60.9,-31.5 61.3,-69 33.3,-70.8C30.3,-71 26,-71 22.4,-70.8C15,-70.5 10.6,-66.5 10.5,-59.9C10.3,-55.3 10.4,-47.6 10.4,-38.7C10.4,-26.8 10.5,-12.8 10.1,-0.8C9.9,3.1 16.7,3.6 16.8,-1C16.8,-8.8 16.5,-20.1 16.5,-27.8C16.4,-29.4 16.9,-29.4 18,-29.1C22.7,-28 28.9,-27.8 34.7,-28.5ZM33.6,-34.1C28.8,-33.6 22.8,-33.6 18.4,-34.7C17.7,-34.9 16.5,-35.5 16.5,-37C16.6,-43 16.2,-54.5 16.6,-58.8C16.9,-62.7 19.1,-64.9 23.2,-65.2C25.5,-65.5 30.4,-65.4 32.6,-65.2C53.6,-64 52.4,-36.1 33.6,-34.1Z"></path><path transform="translate(261 200)" d="M30.6,-39.2C34.6,-39.2 34.9,-45 30.5,-44.8C24.7,-44.7 18.9,-42.1 16,-38.1C15.7,-37.6 15.5,-37.6 15.5,-38.2C15.5,-39.6 15.6,-40.3 15.6,-41.8C15.6,-45.6 9.4,-45.2 9.5,-41.9C9.8,-30.8 9.7,-13.7 9.3,-0.5C9.2,3.2 15.5,3.6 15.4,-0.4C15.2,-11.9 15.3,-22.5 15.4,-27C15.7,-34.6 23.5,-39.2 30.6,-39.2Z"></path><path transform="translate(298 200)" d="M51.8,-20.9C51.8,-34.8 41.8,-44.8 28.5,-44.8C15.3,-44.8 5.4,-34.8 5.4,-20.9C5.4,-6.5 15.3,3.1 28.5,3.1C41.8,3.1 51.8,-6.5 51.8,-20.9ZM45.9,-20.9C45.9,-9.6 38.1,-2.3 28.5,-2.3C18.9,-2.3 11.2,-9.6 11.2,-20.9C11.2,-32.2 18.9,-39.6 28.5,-39.6C38.1,-39.6 45.9,-32.2 45.9,-20.9Z"></path><path transform="translate(355 200)" d="M19.2,-66.7C19.2,-69.2 17,-71.3 14.5,-71.3C12.3,-71.4 9.4,-69.9 9.5,-66.5C9.6,-63.2 11.7,-61.7 14.5,-61.8C16.9,-61.9 19.2,-63.6 19.2,-66.7ZM17.7,5.1C17.8,-0.6 17.6,-4.5 17.6,-7.7C17.5,-18.9 17.4,-30.1 17.6,-41.3C17.7,-45 11.5,-45.5 11.5,-41.2C11.4,-30.2 11.6,-19.2 11.7,-8.1C11.7,-3.3 12,-2.4 11.8,4.2C11.5,13.6 6,20.5 -1.1,21.7C-4.7,22.2 -3.9,27.6 0,27C9,25.8 17.4,17.9 17.7,5.1Z"></path><path transform="translate(382 200)" d="M47,-4.7C49.8,-7.7 45.2,-11.6 42.9,-8.8C39.8,-5.3 35.7,-2.2 28.4,-2.2C18.8,-2.2 11.6,-8.9 11.6,-19.8C11.6,-21.2 11.8,-21.6 12.8,-21.6C16.1,-21.6 33.6,-21.4 40.4,-21.6C47.2,-21.9 49.1,-26.9 46.8,-32.8C44.4,-39 38,-44.7 28,-44.7C16.2,-44.7 5.7,-35.1 5.7,-20.5C5.7,-6.4 15.6,3.1 28.3,3.1C37,3.1 43,-0.3 47,-4.7ZM41.3,-31.5C42.3,-28.8 41.9,-26.7 38.5,-26.5C32.9,-26.3 16.3,-26.3 13.4,-26.5C12.7,-26.6 12.2,-26.8 12.5,-28.2C14.3,-35 21.1,-39.7 28.1,-39.7C36,-39.7 39.9,-35.2 41.3,-31.5Z"></path><path transform="translate(435 200)" d="M46.7,-4.7C49.1,-8 44.3,-12 41.6,-8.2C36.3,-0.9 22.8,-0.4 16.5,-7.6C9.1,-15.8 10.1,-28.9 17.7,-35.9C23.5,-41.2 34.7,-41.5 39.8,-35C42.5,-31.6 47.2,-35.2 44.5,-38.8C40.2,-44.7 24.3,-49.1 13.5,-39.4C4.1,-30.8 2.7,-14.1 11.7,-4.1C20.7,6 39.4,5 46.7,-4.7Z"></path><path transform="translate(486 200)" d="M28.8,2.7C32.3,2 31.7,-3 28.4,-2.6C23.1,-2 17.9,-2.5 17.6,-10.6C17.5,-17.2 17.9,-32.3 17.8,-37C17.8,-38.2 17.8,-38.5 19.5,-38.5L28.3,-38.5C32,-38.5 32,-43.7 28.3,-43.7L19.4,-43.7C18.1,-43.7 17.8,-43.8 17.8,-44.8C17.9,-48.4 18.1,-52.1 18,-55.7C18,-59.9 12.1,-59.6 12.2,-55.7C12.4,-52.5 12.2,-45.2 12.2,-44.7C12.2,-43.8 12,-43.7 11.1,-43.7L5.2,-43.7C1.4,-43.7 1.5,-38.5 5.2,-38.5L11.2,-38.5C11.9,-38.5 12.1,-38.3 12.2,-37.3C12.3,-34.1 11.9,-15.5 12,-9.9C12.2,1.8 20.9,4.1 28.8,2.7Z"></path><path transform="translate(521 200)" d=""></path><path transform="translate(551 200)" d="M47,-70.5C43.6,-70.8 25.7,-70.7 22,-70.5C14.7,-70.2 10.5,-66.1 10.3,-59.5C10,-48.9 10.1,-12.9 9.9,-0.8C9.8,3.3 16,2.9 16.1,-0.7C16.2,-4.4 16,-24.7 16,-32.2C16,-33.2 16.6,-33.6 17.5,-33.7C22.4,-33.9 36.5,-33.9 41.2,-33.6C45.5,-33.4 45.9,-39.9 41.3,-39.6C37.5,-39.4 20.5,-39.4 17.6,-39.6C16.6,-39.6 16.1,-40 16.1,-41.1C16.3,-47 16.1,-56.1 16.3,-58.6C16.6,-62.3 18.6,-64.5 22.9,-64.8C27.3,-65.1 43.6,-64.9 46.7,-64.8C51,-64.7 51.1,-70.3 47,-70.5Z"></path><path transform="translate(604 200)" d="M51.8,-20.9C51.8,-34.8 41.8,-44.8 28.5,-44.8C15.3,-44.8 5.4,-34.8 5.4,-20.9C5.4,-6.5 15.3,3.1 28.5,3.1C41.8,3.1 51.8,-6.5 51.8,-20.9ZM45.9,-20.9C45.9,-9.6 38.1,-2.3 28.5,-2.3C18.9,-2.3 11.2,-9.6 11.2,-20.9C11.2,-32.2 18.9,-39.6 28.5,-39.6C38.1,-39.6 45.9,-32.2 45.9,-20.9Z"></path><path transform="translate(661 200)" d="M30.6,-39.2C34.6,-39.2 34.9,-45 30.5,-44.8C24.7,-44.7 18.9,-42.1 16,-38.1C15.7,-37.6 15.5,-37.6 15.5,-38.2C15.5,-39.6 15.6,-40.3 15.6,-41.8C15.6,-45.6 9.4,-45.2 9.5,-41.9C9.8,-30.8 9.7,-13.7 9.3,-0.5C9.2,3.2 15.5,3.6 15.4,-0.4C15.2,-11.9 15.3,-22.5 15.4,-27C15.7,-34.6 23.5,-39.2 30.6,-39.2Z"></path><path transform="translate(698 200)" d=""></path><path transform="translate(728 200)" d="M90.1,-67.2C90.9,-71.2 84.5,-72.5 83.7,-68.2C80.9,-54.1 72.5,-17.3 70,-7.7C69,-3.5 65.9,-2.9 65,-7.8C62.9,-19.7 56.2,-52.8 54,-64.5C52.5,-72.4 41.4,-73.3 39.7,-64.4C37.1,-50.6 29.8,-16.2 27.9,-7.7C26.9,-3.4 23.7,-2.8 22.8,-7.6C20.6,-18.4 13.2,-53.5 10.7,-68.2C10,-71.8 3.4,-71.5 4.1,-67.1C5.7,-56.8 10.1,-36.9 13.5,-21.1C14.9,-15.1 16,-9.7 16.9,-5.7C19.1,4.7 30.4,5.8 33.3,-5.9C36.5,-18.5 43.7,-52 45,-61.3C45.4,-64.7 48.2,-65 48.7,-61.5C49.8,-52.9 56.9,-16.7 59.5,-5.8C62.4,6 73.5,4.3 75.8,-5.4C79.5,-20.7 86.6,-49.4 90.1,-67.2Z"></path><path transform="translate(822 200)" d="M47,-4.7C49.8,-7.7 45.2,-11.6 42.9,-8.8C39.8,-5.3 35.7,-2.2 28.4,-2.2C18.8,-2.2 11.6,-8.9 11.6,-19.8C11.6,-21.2 11.8,-21.6 12.8,-21.6C16.1,-21.6 33.6,-21.4 40.4,-21.6C47.2,-21.9 49.1,-26.9 46.8,-32.8C44.4,-39 38,-44.7 28,-44.7C16.2,-44.7 5.7,-35.1 5.7,-20.5C5.7,-6.4 15.6,3.1 28.3,3.1C37,3.1 43,-0.3 47,-4.7ZM41.3,-31.5C42.3,-28.8 41.9,-26.7 38.5,-26.5C32.9,-26.3 16.3,-26.3 13.4,-26.5C12.7,-26.6 12.2,-26.8 12.5,-28.2C14.3,-35 21.1,-39.7 28.1,-39.7C36,-39.7 39.9,-35.2 41.3,-31.5Z"></path><path transform="translate(875 200)" d="M55.9,-21C55.9,-35 46.2,-44.8 33.2,-44.8C26.4,-44.8 20.5,-41.8 17,-37.1C16.1,-35.9 15.9,-36.2 15.9,-37.4C16,-49.4 16,-60.2 16.2,-67.8C16.4,-71.9 10,-72.1 10.2,-67.6C10.7,-57.9 10.2,-16.3 10.2,-0.9C10.2,3.7 15.7,3.3 16.1,-0.3C16.2,-0.9 16.1,-3.7 16.1,-4.1C16.1,-6.3 16.1,-5.9 17.4,-4.4C21.4,0.4 27.3,2.8 33.2,2.8C46.2,2.8 55.9,-6.6 55.9,-21ZM49.9,-21C49.9,-9.9 42.5,-2.6 33,-2.6C23.5,-2.6 15.9,-9.9 15.9,-21C15.9,-32.3 23.5,-39.6 33,-39.6C42.5,-39.6 49.9,-32.3 49.9,-21Z"></path></svg>