<svg  xmlns="http://www.w3.org/2000/svg" xmlns:xlink="http://www.w3.org/1999/xlink" width="883" height="300" viewBox="0 0 907 324"><path transform="translate(0 100)" d="M86.1,-62.3Q91.4,-57.6 92.5,-56.4Q94.1,-54.9 94.6,-54.4Q94.6,-50.3 92.8,-43.35Q91,-36.4 88.6,-30.25Q86.2,-24.1 84.7,-22.4Q83.6,-19.5 82.15,-18.5Q80.7,-17.5 76.4,-16.2Q73.8,-17.8 72.25,-19.45Q70.7,-21.1 69.7,-23.3Q68.9,-23.2 66.3,-23.2Q63.7,-23.1 61.1,-22.95Q58.5,-22.8 58,-22.4L57.4,-16.4Q57.4,-4.4 56,4.65Q54.6,13.7 50.8,18.3Q46.6,13.4 45.1,7.4Q43.6,1.4 43.6,-6.6Q43.6,-9 43.8,-14.4Q44,-18.2 44,-20.3Q43.2,-20.2 40.7,-19.8Q37,-19.3 32.95,-18.8Q28.9,-18.3 26.2,-18Q24.5,-16.8 23.4,-13.8Q23,-12.6 22.6,-12.1Q22.2,-11.6 21.6,-11.6Q20.4,-12.5 18.8,-13.3Q15.5,-14.9 14.6,-16.4Q13.1,-19.5 12.45,-27.65Q11.8,-35.8 11.8,-39.1Q11.4,-40.8 10.8,-44.2Q9.7,-50 8.9,-52.85Q8.1,-55.7 6.6,-57.1Q7,-58.1 8.1,-58.1Q8.7,-58.1 10.5,-57.5Q11.9,-56.8 13,-56.8Q17.5,-54.3 22.2,-53.5Q24.4,-54.5 28.45,-55Q32.5,-55.5 39.1,-56L43.6,-56.4Q44.2,-58 44.2,-59.7Q44.2,-61.3 43.9,-66.7Q43.5,-67.9 43.1,-69.5Q42.7,-71.3 42.15,-72.6Q41.6,-73.9 40.2,-76.6Q41.5,-78.2 45.9,-78.2Q49.7,-78.2 53.9,-77.1Q58.1,-76 60,-74.5Q60,-67.6 58,-61.9Q58.1,-60.2 58.3,-59.5Q58.5,-58.8 58.55,-58.7Q58.6,-58.6 58.2,-58.6Q58.5,-58.5 60.1,-58.5Q64.1,-58.5 70.8,-59.15Q77.5,-59.8 79.1,-60.5Q79.9,-60.9 81.3,-61.7Q81.9,-62.1 82.35,-62.25Q82.8,-62.4 83.8,-62.4Q85.1,-62.4 86.1,-62.3L86.1,-62.3ZM52.5,-60.4Q52.6,-63.3 53,-65.1Q53.3,-67.2 53.3,-68L52.3,-68L52.3,-65L52.3,-63.1L52.5,-60.4L52.5,-60.4ZM74.3,-32.8Q76.3,-35.6 76.8,-39.9Q77.3,-44.2 77.3,-50.5Q74.6,-50.6 67.2,-50.1Q59.8,-49.6 58.7,-49.3Q57.3,-47 57.3,-35.1L57.2,-31.3Q61.9,-32 68.3,-32.3L74.3,-32.8L74.3,-32.8ZM43.6,-29.5Q44.1,-30.1 44.1,-41Q44.1,-45.9 44.2,-47.3L40.6,-47Q33.1,-46.3 29.1,-45.65Q25.1,-45 24.3,-43.7Q24,-43.1 24,-42Q24,-40 24.9,-35.3Q25.8,-30.9 25.9,-27.8Q41.6,-28.3 43.6,-29.5L43.6,-29.5Z"></path><path transform="translate(100 100)" d="M95.1,2.8Q96.1,4.1 93.15,7.1Q90.2,10.1 85.75,13Q81.3,15.9 78.4,16.8Q77.4,17 76.8,17Q75.2,17 73.7,16.35Q72.2,15.7 70.4,14.6Q69.8,14.2 68.6,13.6Q63.4,10.8 59.3,6.5Q55.2,2.2 50.3,-5.1Q45,-0.3 36.7,3.55Q28.4,7.4 19.55,9.65Q10.7,11.9 3.7,12.3Q22.6,2.1 31.6,-4.5Q40.6,-11.1 41.2,-15.9Q38.2,-19.5 34.95,-27.9Q31.7,-36.3 29.7,-43.7Q29.4,-46.8 28.6,-51.8Q25.7,-51.6 24,-51Q22.7,-50.6 20.5,-49.2Q19,-48.3 17.8,-47.8Q16.6,-47.3 15,-47.2Q14.1,-48.4 12.6,-49.45Q11.1,-50.5 10.9,-50.7Q8.3,-52.6 6.9,-53.95Q5.5,-55.3 4.9,-57.3Q7,-57 21.2,-58.8Q35.4,-60.6 38.3,-61.4Q42.5,-62.2 44.6,-62.7Q44.8,-62.8 44.8,-63.2Q44.8,-64 43.3,-65.5L33.9,-75.3Q39.5,-76.3 43.7,-76.3Q51.2,-76.3 52.6,-73Q53.4,-71.7 53.4,-70.3Q53.4,-69.3 52.9,-67.8Q52.3,-65.4 52.3,-63.7Q56.1,-63.7 63.8,-64.8L69.6,-64.6L71.9,-65.2Q79.5,-67.3 83.7,-67.3Q85.8,-67.3 87.4,-66.9Q87.9,-66.1 88.3,-65.6Q88.7,-65.1 89,-64.7Q90.7,-62.4 91.5,-60.7Q92.3,-59 92.3,-56.2Q91.7,-55.4 90.3,-54.6Q85.4,-54.3 80.7,-55.5Q79.2,-55.9 77.9,-55.9Q77,-55.9 76.05,-55.75Q75.1,-55.6 74.2,-55.6Q73.8,-55.6 72.4,-55.8L72.4,-54.4Q73.2,-53.6 73.85,-52Q74.5,-50.4 74.7,-49Q73.5,-48.2 73,-46.95Q72.5,-45.7 72,-43.3Q71.9,-42.8 71.65,-41.8Q71.4,-40.8 71.1,-40.1Q70.5,-38.4 67.45,-31.9Q64.4,-25.4 61.65,-20.25Q58.9,-15.1 58.4,-15.5Q59.5,-14 64.55,-10.3Q69.6,-6.6 76.35,-3.1Q83.1,0.4 89.6,1.5Q94,2.2 95.1,2.8L95.1,2.8ZM42.3,-74.3Q41.9,-74.3 41.75,-74.3Q41.6,-74.3 41.55,-74.15Q41.5,-74 41.3,-73.7L42.3,-73.3L42.3,-74.3L42.3,-74.3ZM4.9,-57.3Q4.4,-57.5 4.8,-57.6L4.9,-57.3L4.9,-57.3ZM48.3,-26.9Q50.6,-28.9 52.95,-33.55Q55.3,-38.2 56.8,-43.4Q58.3,-48.6 58.3,-52.4Q58.3,-53.2 58.1,-54.6L54.7,-54.7Q52.7,-53.5 43.9,-52.6Q35.1,-51.7 34.3,-51.6Q35.4,-47 36.85,-44.2Q38.3,-41.4 44,-32.9Q44.3,-32.6 45.1,-30.9Q45.9,-29.3 46.6,-28.3Q47.3,-27.3 48.3,-26.9L48.3,-26.9ZM74.6,4.8Q72.7,4.7 71.6,4.35Q70.5,4 68.6,3.1Q68.7,4.2 69.95,5.25Q71.2,6.3 73,6.4Q73.4,6.2 74.6,5.2L74.6,4.8L74.6,4.8Z"></path><path transform="translate(200 100)" d="M89.9,-6Q90.4,-4.1 90.4,-1.1Q90.4,2.9 89.4,7Q88.4,11.1 86.75,13.75Q85.1,16.4 83.3,16.4Q80.5,16.4 75.35,13.1Q70.2,9.8 65.7,6.3Q67.8,5.7 70.1,5.3Q72.5,5 73.75,4.3Q75,3.6 76.5,1.3Q77.7,1.3 77.7,-20Q77.7,-33.3 77.25,-46.7Q76.8,-60.1 76.2,-62.6Q70.7,-63.7 61.3,-63.7Q47.6,-63.7 35.3,-61.8Q30.5,-59.9 27.6,-59.5Q25.7,-59.3 22.85,-61.2Q20,-63.1 17.95,-65.65Q15.9,-68.2 16.4,-69.5Q17.1,-69.4 35.6,-70.5Q71.1,-72.5 71.5,-72.1Q73,-72.8 76,-73.8Q78.8,-74.8 80.1,-75.4Q83.2,-75.3 86.1,-73Q89,-70.7 89.7,-68.1Q89.6,-67.5 89.25,-66.25Q88.9,-65 88.8,-64.1L89.3,-50L89,-33.7Q88.8,-22.1 88.8,-19.6Q88.8,-10.4 89.9,-6L89.9,-6ZM79.5,-70.9Q79.6,-70.7 79.7,-70.6Q79.8,-70.5 80.1,-70.5L79.5,-70.9L79.5,-70.9ZM50.1,-50.4Q50.4,-49 49.1,-46.3Q48,-44.3 47.9,-43Q47.8,-41 47.15,-39Q46.5,-37 45.3,-34.3Q43.4,-30 43.1,-27.7Q44.6,-25.9 46.3,-24.5Q48.3,-22.7 49.25,-21.4Q50.2,-20.1 50.2,-18.4Q50.2,-17.6 49.9,-16.5Q49,-15.4 48,-12Q47.2,-9.6 46.6,-8.5Q46,-7.4 45,-7.4Q44.5,-7.4 43.8,-7.8Q43.1,-9.2 41.5,-13Q40,-16.9 39.05,-18.65Q38.1,-20.4 37.6,-19.2Q36.4,-18 35.3,-16.15Q34.2,-14.3 32.5,-11.2Q30.1,-6.6 28.5,-4.2Q26.9,-1.8 24.9,-0.5Q25.3,12.5 20.4,13.4Q16,10.4 13.45,8.4Q10.9,6.4 9.8,3.9L12.8,-58.1Q12.4,-59.7 10.8,-62.5Q9.6,-64.4 9.1,-65.9L11.8,-66.3Q18.5,-64.8 20.7,-61.65Q22.9,-58.5 22.9,-53.1L22.8,-48.6Q22.6,-45 22.6,-43Q22.6,-37.2 23.6,-24.8Q24.4,-14.8 24.5,-10.4L24.6,-7.9Q24.9,-4.8 24.9,-1L26.9,-6.4Q27,-8.4 28.5,-13.6Q29.9,-18.4 30.6,-21.85Q31.3,-25.3 31.2,-28.9L23,-46.7Q24.6,-46.9 27.15,-44.7Q29.7,-42.5 33,-39Q34.7,-37.1 35.1,-36.8Q36.6,-38.8 37.7,-43.55Q38.8,-48.3 38.8,-51.4Q38.8,-52.8 38.6,-53.1Q38.1,-53.8 37.55,-54.05Q37,-54.3 36.75,-54.55Q36.5,-54.8 36.4,-55.5Q36.7,-56.4 38.1,-56.4Q39.8,-56.4 42.5,-55.3Q45.2,-54.2 47.5,-52.75Q49.8,-51.3 50.1,-50.4L50.1,-50.4ZM77,-14.8Q76.9,-14.6 75.5,-9.2Q74.8,-6.2 74.25,-5.15Q73.7,-4.1 72.3,-4.1Q71.3,-4.1 69.3,-4.7Q67.2,-9.5 64.95,-13.3Q62.7,-17.1 61.7,-17.5Q61.3,-17 59.8,-14.6Q55.8,-8.4 52.9,-4.75Q50,-1.1 47.4,-0.7Q48.5,-3.6 49.9,-6.7Q51.7,-10.9 52.8,-14.05Q53.9,-17.2 54.3,-20.4Q54.5,-21.1 55.4,-23.4Q56.3,-25.7 56.3,-27.6Q56.3,-28.4 56.2,-28.8Q54.8,-32.8 52.4,-36.1Q52.1,-36.4 51.1,-38.3Q49.1,-42.2 47.9,-43Q48.1,-43.6 48.8,-43.6Q50.5,-43.6 54.1,-41.1Q57.7,-38.6 58.3,-37.2Q58.7,-38.1 59.75,-43.35Q60.8,-48.6 60.8,-50.9Q60.8,-51.8 60.7,-52Q60.6,-52.5 60.05,-53Q59.5,-53.5 59.3,-54.2L62.8,-54.3Q63.6,-54.4 64.9,-54.4Q67,-54.4 68.5,-53.65Q70,-52.9 72.3,-50.5Q72.4,-49.7 72.4,-48.2Q72.4,-45.3 71.7,-42.55Q71,-39.8 69.6,-36.1Q67.5,-30.7 67,-27.3Q68.8,-26.2 72.55,-21.55Q76.3,-16.9 77,-14.8L77,-14.8ZM69.2,-16.6Q68.9,-17.7 68.55,-18.35Q68.2,-19 67.5,-19.3L68.8,-16.6L69.2,-16.6L69.2,-16.6Z"></path><path transform="translate(300 100)" d="M15.6,-72.3Q17.6,-68.7 20.35,-67.35Q23.1,-66 27,-66Q28.6,-66 33,-66.4Q39,-66.9 41,-66.9Q41.1,-67.3 41.2,-67.6Q41.3,-67.9 41.4,-68.2Q40.9,-68.7 40.9,-69.3L41,-70.3Q41,-70.7 40.7,-71.4Q40,-72.6 38.7,-74Q36.6,-76.8 36.1,-77.8Q40,-77.8 45.9,-77.3Q51.8,-76.8 52.2,-75.5Q52.5,-75.1 52.5,-74.3Q52.5,-73.3 51.6,-70.4Q51.5,-69.9 51.3,-69.2Q51.1,-68.5 51.1,-68.2Q51.4,-67.9 53,-67.9Q56.4,-67.9 69.4,-69.6L72.6,-70Q73.4,-70.3 73.9,-70.55Q74.4,-70.8 74.8,-71Q76.1,-71.7 77.2,-72.05Q78.3,-72.4 80,-72.4Q81.4,-71.3 84.6,-69.7Q87.7,-68 89.35,-66.75Q91,-65.5 91.8,-63.2Q91.3,-62.8 90.35,-61.7Q89.4,-60.6 88.6,-60.1L76.8,-50.5Q76.7,-49.9 76.15,-54.35Q75.6,-58.8 75.4,-61.5Q74.9,-61.4 64.4,-60.9Q61.6,-60.7 49.25,-60.05Q36.9,-59.4 29.9,-58.8Q22.9,-58.2 24.1,-57.9Q23.1,-58.2 21.2,-59.4Q19.7,-60.5 19,-60.7Q18.6,-56.4 17.55,-51.7Q16.5,-47 15.2,-44.3Q14.5,-43.9 13.6,-43.9Q11.5,-43.9 8.85,-45.85Q6.2,-47.8 4,-50.6Q3.5,-51.3 3.5,-51.9Q3.5,-53.1 4.4,-54.6Q5.3,-56.1 7.3,-58.7Q8.2,-59.8 10,-62.4Q10.2,-62.8 11,-64.9Q12.1,-67.8 13,-69.65Q13.9,-71.5 14.8,-71.9Q15.2,-72.2 15.6,-72.3L15.6,-72.3ZM80.4,-14.7Q78.8,-14.9 75.7,-14.9Q71.5,-14.9 67,-14.7Q62.5,-14.5 61.6,-14.2Q63.4,-9.5 63.4,-4.8Q63.4,1.3 60.75,6.1Q58.1,10.9 54.9,13.7Q53.4,14.8 50.3,16.35Q47.2,17.9 44.6,17.9Q43.7,17.9 42.9,17.6Q42.4,16.8 39.8,14.2Q32.9,7 29.1,2.4Q33.8,3 38.3,3Q42.9,3 45,2.4Q45.7,0.8 47,-0.9Q48.2,-2.6 48.8,-3.95Q49.4,-5.3 49.4,-7.5Q49.4,-9.4 48.8,-12.4L46.6,-12.5Q41.6,-12.5 32.1,-11.8Q22.6,-11.1 20.4,-10.6Q17.7,-9.6 15.9,-9.6Q13.9,-9.6 12.5,-10.7Q11.1,-11.8 8.9,-14.7L5.1,-19.2Q5,-19.5 9.5,-19.75Q14,-20 19.9,-20.2Q38,-20.6 47.8,-21.6Q47.4,-23.2 44.35,-24.6Q41.3,-26 37.9,-26.3Q42.7,-29.7 47.25,-34.5Q51.8,-39.3 53.2,-43.6Q51.5,-43 40.35,-41.3Q29.2,-39.6 24.9,-39Q23,-40.4 22.3,-41.6Q21.6,-42.8 21.1,-44.9Q20.5,-47.2 19.6,-49.4L20.6,-49.4Q21.3,-49 25.4,-49Q34,-49 46.55,-50.25Q59.1,-51.5 61,-53L64.4,-53Q66.3,-53 67.4,-52.8Q68.5,-52.6 69.3,-51.8Q69.7,-51.3 72.55,-48.4Q75.4,-45.5 75.4,-44.6Q73.1,-41.9 67.95,-38.55Q62.8,-35.2 55.4,-30.9L51.4,-28.5L53.5,-27Q56.2,-25.1 57.7,-24.2Q59.2,-23.3 60.6,-23.2Q59.5,-22.6 62.05,-22.85Q64.6,-23.1 67.9,-23.6Q71.2,-24.1 69.8,-24Q75.8,-24.7 89.2,-25.1Q91.5,-25.1 93.35,-23Q95.2,-20.9 96.25,-17.85Q97.3,-14.8 97.4,-12.2Q95.1,-12.1 93.75,-12.25Q92.4,-12.4 88.8,-13.1L80.4,-14.7L80.4,-14.7ZM40.6,-45.3Q40,-45.1 39,-44.8Q38,-44.5 37.4,-44.1L36.7,-42.9L37.4,-42.9Q38,-43.4 39.5,-43.8Q40.6,-44.1 41.6,-44.7L42.1,-45.3L40.6,-45.3L40.6,-45.3ZM51.9,9.9Q52.2,9.9 52.8,9.35Q53.4,8.8 52.7,8.7L51.9,9.9L51.9,9.9ZM44.6,13.5Q44.9,12.8 45,12.3L44.6,11.9L42.9,11.9Q43.1,12.3 43.55,13Q44,13.7 44.6,14.1L44.6,13.5L44.6,13.5Z"></path><path transform="translate(400 100)" d="M97.9,-39.4Q92.2,-37.1 82.4,-37.1Q78.1,-37.1 72.1,-37.6Q72,-32.3 72.25,-26.15Q72.5,-20 72.6,-17.6Q73.1,-9.4 73.1,-3.7Q73.1,2.6 72.35,7.55Q71.6,12.5 69.8,16.6Q68.1,16 66.9,14.9Q65.7,13.8 63.8,11.7Q62.9,10.5 61.9,9.5Q61.6,4.6 61.6,-0.1Q61.6,-7.9 62.3,-18Q62.9,-29.6 62.9,-35.7Q59.6,-35.7 56.05,-35.1Q52.5,-34.5 51.9,-34.4Q45.9,-33.2 42.6,-33.1Q41.6,-34.3 40.7,-35Q38.8,-37 38,-38.6Q37.2,-40.2 36.9,-44Q39.9,-43.1 47,-43.1Q52.8,-43.1 57.25,-43.85Q61.7,-44.6 62.3,-46.1Q62.5,-45.7 62.5,-47.8Q62.5,-52.5 61.9,-63.5Q61.7,-66.8 61.6,-68.85Q61.5,-70.9 61.6,-71.1Q61.6,-71.7 60.7,-73.1Q60.5,-73.5 60.15,-74.3Q59.8,-75.1 59.7,-75.5Q64.3,-75.7 65.1,-75.7Q67.5,-75.7 69.15,-75.1Q70.8,-74.5 74.5,-72.5Q74.5,-71.1 74.7,-69.65Q74.9,-68.2 74.9,-67.2Q74.9,-66 74.5,-64.7L73,-47.1Q76.8,-47.3 84,-48.7Q85.1,-48.9 90.1,-49.7Q90.8,-49.1 92.9,-47.45Q95,-45.8 96.25,-43.85Q97.5,-41.9 97.9,-39.4L97.9,-39.4ZM31.6,-58Q28.7,-58.6 24.15,-61.7Q19.6,-64.8 15.8,-68.7Q12,-72.6 11,-75.3Q17.4,-75.3 24.3,-74.1Q31.2,-72.9 32.4,-71.9Q33.8,-70.9 33.8,-68.6Q33.8,-66.7 32.5,-62.4Q31.6,-59.2 31.6,-58L31.6,-58ZM19.5,-6.5Q20,-8.1 20.65,-20.45Q21.3,-32.8 21.1,-36.8Q20.7,-37.2 15.5,-34.3Q12.7,-32.8 12.3,-32.7Q9,-35.3 6.9,-37.25Q4.8,-39.2 3.5,-41.5L9.2,-41.5Q11.2,-42.1 15.4,-43.1L18.5,-43.9Q20.7,-44.7 23.2,-46.25Q25.7,-47.8 27.9,-49.3Q29.9,-48.8 31.7,-47.15Q33.5,-45.5 33.8,-43.5Q33,-42.2 32.75,-40.85Q32.5,-39.5 32.3,-36.8Q32.1,-34 31.9,-32.8Q30.1,-25.5 30.1,-17Q30.1,-13.7 30.4,-9.9Q31.9,-11.7 35.85,-13.3Q39.8,-14.9 42.9,-15.1Q42.4,-14.6 41.6,-13.4Q36.2,-5.5 30.3,2.3Q29.6,3.2 28.8,4.4Q26.9,7.2 25.2,8.85Q23.5,10.5 21,10.6Q15.7,5.4 13.95,3.05Q12.2,0.7 12.6,-1.8Q13.2,-2.2 16.2,-4.1Q19.2,-6 19.5,-6.5L19.5,-6.5Z"></path><path transform="translate(500 100)" d="M57.5,-54.3Q60.8,-51.8 62.55,-49.9Q64.3,-48 65.2,-45Q64.8,-44.8 43,-42.6L37.7,-42Q37.7,-37.3 38.2,-33.2Q38.7,-29.1 39.35,-26.95Q40,-24.8 40.6,-25.4Q42.1,-26.9 43.05,-28.6Q44,-30.3 45.5,-33.3Q46.8,-36.1 47.65,-37.7Q48.5,-39.3 49.8,-40.6Q53.7,-38.9 56.95,-36.15Q60.2,-33.4 60.2,-31.2Q55.1,-25.2 48,-18.6Q45.4,-16.2 44.45,-15.15Q43.5,-14.1 43.3,-13.2Q43.7,-12.4 43.9,-10.8Q44.1,-9.4 44.4,-8.5Q44.9,-7.3 46.85,-5.1Q48.8,-2.9 51,-1.2Q53.2,0.5 54.6,0.5L56.6,-3.3Q58.6,-7.2 59.8,-9.35Q61,-11.5 61.8,-11.8L61.7,-8.5Q61.7,-2.6 62.9,5.8Q63.4,9.5 63.4,11.1Q63.4,13 62.65,14.05Q61.9,15.1 60.1,15.8Q59.3,16.1 58.7,16.1Q57.2,16.1 55.5,15Q53.8,13.9 53.2,13.6Q51.8,12.9 47.7,10.25Q43.6,7.6 39.55,3.7Q35.5,-0.2 34.1,-4.3Q28.9,-0.5 21.4,3.25Q13.9,7 7.1,8.5Q17.9,1.1 28.8,-11.4Q30.6,-13.3 30.7,-13.4Q29.1,-17.6 28.4,-21.6Q27.7,-25.6 27.3,-30.4Q27.1,-32.6 26.85,-34.6Q26.6,-36.6 26.1,-37.7L22.6,-36.1Q19.7,-34.8 18,-33.9Q16.3,-33 15,-31.9Q10.9,-33.4 7.65,-36.55Q4.4,-39.7 4.2,-43.9Q6.1,-42.8 7.9,-42.8Q9.8,-42.8 15,-44.1Q21.7,-45.8 26.1,-46.6Q26,-50.3 25.2,-57.1Q24.2,-65.3 24.2,-70Q24,-70.8 22.5,-73.2Q21.5,-74.8 21.2,-75.65Q20.9,-76.5 21.7,-76.5Q22.3,-76.5 23.95,-76.65Q25.6,-76.8 27.2,-76.8Q33.8,-76.8 36.3,-74.1Q37.2,-72.7 37.2,-71.1Q37.2,-69.6 36.3,-67.1Q36,-65.9 36,-63.7Q36,-60.2 36.55,-55.3Q37.1,-50.4 37.5,-48.3Q38.7,-49 46.8,-50.7L49.8,-51.4Q50.4,-51.6 52.2,-52.5Q53.9,-53.4 54.95,-53.8Q56,-54.2 57.5,-54.3L57.5,-54.3ZM93.4,-8.8Q93.6,-3.6 93.6,-2Q93.6,2.4 92.9,5.55Q92.2,8.7 90.4,12Q88.9,14.7 87.85,15.8Q86.8,16.9 85.5,16.9Q83.6,16.9 80.4,14.2Q77.2,11.5 69,3.5Q73.5,3 81.4,3Q82.1,1.8 82.55,-7.75Q83,-17.3 83,-28Q83,-41.8 82.3,-44.2Q82.1,-49.8 81.9,-52.8Q81.9,-54.4 81.7,-58L81.5,-67.6L80.2,-69.9Q78.8,-72.5 78.7,-72.9Q78.6,-74.2 81.1,-74.2Q84,-74.2 88.3,-72.9Q92.6,-71.6 93.8,-70.4Q93.6,-67.8 93.5,-65.15Q93.4,-62.5 93.3,-60.2L93.1,-54.6L93.4,-8.8L93.4,-8.8ZM32.4,-72.1Q31.9,-72.5 31.5,-72.6L30.4,-72.6Q30.8,-72.1 31.2,-71.85Q31.6,-71.6 32.4,-71.5L32.4,-72.1L32.4,-72.1ZM50.6,-56.8Q49.1,-57.9 48.05,-59.6Q47,-61.3 45.5,-64.2Q43.2,-69 41.4,-70.8Q45.3,-70.8 48.45,-70.25Q51.6,-69.7 54.8,-67.7Q56.1,-65.8 56.1,-63.3Q56.1,-60.7 54.6,-58.8Q53.1,-56.9 50.6,-56.8L50.6,-56.8ZM76.4,-6.7Q76,-6.6 68.1,-9.9Q66.7,-10.5 66.7,-14.8Q66.7,-17.2 67,-20.3Q67.3,-28.1 67.3,-28.8L67.2,-32.1L67.3,-34.7Q67.7,-39.7 67.7,-44.9Q67.7,-56.5 65.2,-59.2Q69.2,-59.2 71.8,-58.1Q74.4,-57 77.7,-54.6Q77.8,-49.9 76.4,-43.5Q76.5,-40.2 76.6,-33Q76.7,-25.8 76.7,-17.6Q76.7,-7.5 76.4,-6.7L76.4,-6.7ZM50.2,-34.6Q51.1,-32.1 53.2,-31.5L53.2,-31.9Q52.7,-32.4 52,-33.6Q51.3,-34.8 50.5,-35.2L50.2,-34.6L50.2,-34.6ZM34.9,-20.7Q34.6,-21.1 34.5,-21.6Q34.4,-22.1 34.3,-22.4L33.8,-22.4Q34,-21.7 34.1,-20.35Q34.2,-19 34.3,-18.2L34.9,-18.2L34.9,-20.7L34.9,-20.7ZM33.8,-24.6L33.8,-26.5L33.1,-26.5L33.1,-24.6L33.8,-24.6Z"></path><path transform="translate(0 200)" d="M58.4,-68.6Q59.7,-66.9 61.7,-63.15Q63.7,-59.4 63.3,-58Q63.2,-57.7 59.5,-57.7L50.5,-57.8Q40.3,-57.8 38.4,-56.6Q37.7,-55.4 37.7,-41.9Q37.7,-31.4 38.05,-17.45Q38.4,-3.5 38.7,3.3Q35.6,3.3 30.85,1.7Q26.1,0.1 25,-1.1Q25.4,-8 25.75,-20.7Q26.1,-33.4 26.1,-43.9Q26.1,-49.5 25.9,-56.1Q21.1,-56.4 16.2,-56.4Q12.2,-56.4 8.4,-56.1Q6.1,-55.7 4.7,-57.75Q3.3,-59.8 1.8,-64L0.7,-66.8Q3,-66.6 11.6,-66.6Q33.5,-66.6 58.4,-68.6L58.4,-68.6ZM33.5,-4.2Q33.8,-4.5 33.9,-4.65Q34,-4.8 34.1,-5.3Q33.6,-5.7 33,-6.4Q32.4,-7.1 31.7,-7.4L31.7,-5L33,-3.9Q33.2,-4 33.25,-4Q33.3,-4 33.5,-4.2L33.5,-4.2Z"></path><path transform="translate(65 200)" d="M15.2,-74Q14.9,-60.5 14.9,-51.6Q14.9,-44.8 15,-41.3Q17.1,-44 20.65,-45.6Q24.2,-47.2 28.1,-47.2Q31.5,-47.2 34.3,-46Q38.3,-44.3 40.25,-42.1Q42.2,-39.9 42.85,-36.8Q43.5,-33.7 43.5,-28.4Q43.5,-24.8 43.4,-22.7L43.3,-13.9Q43.3,-7.2 43.4,-4.2L40.1,-3Q34.6,-0.8 32.9,-0.9Q32.5,-1.8 32.5,-5Q32.5,-8.8 32.8,-13.7Q32.9,-15.5 33,-18.5Q33.1,-21.5 33.1,-25.5Q33.1,-35.5 31.2,-36.9Q28,-39.3 24.8,-39.3Q22.1,-39.3 19.8,-37.7Q17.5,-36.1 16.15,-33.8Q14.8,-31.5 14.8,-29.5L14.9,-14.1Q14.9,-4.9 14.5,-4.2Q7,-1.3 4.7,-0.9Q5,-12 5,-30.3Q5,-51 4.8,-73.2Q3.8,-73.1 5.95,-74.2Q8.1,-75.3 11,-76.35Q13.9,-77.4 15.3,-77.4L15.2,-74L15.2,-74ZM10.3,-63.7Q10.4,-63.9 10.5,-64.3L9.7,-64.3Q9.8,-63.9 9.8,-63.75Q9.8,-63.6 9.9,-63.55Q10,-63.5 10.3,-63.4L10.3,-63.7L10.3,-63.7ZM32.2,-40Q32.1,-39.3 32.2,-38.7Q32.6,-38.9 33.3,-39.45Q34,-40 33.2,-40L32.2,-40L32.2,-40ZM12.7,-16.2Q12.4,-17.6 12.2,-17.8Q12.2,-15 12.5,-13.9L12.7,-13.9L12.7,-16.2L12.7,-16.2ZM8.6,-66.7L8.9,-66.7L10,-67.9L9.7,-67.9L8.6,-66.7Z"></path><path transform="translate(110 200)" d="M43.9,-12.2Q39.7,-6 34.1,-2.9Q28.5,0.2 22.6,0.2Q16.8,0.2 11.8,-2.6Q6.8,-5.4 3.8,-10.55Q0.8,-15.7 0.8,-22.4Q0.8,-26.6 1.9,-30.6Q4.3,-39.4 10.35,-44.25Q16.4,-49.1 23.5,-49.1Q30.2,-49.1 35.25,-44.75Q40.3,-40.4 41.7,-32.3Q41.9,-31.5 42.5,-28.8Q43.1,-26.1 43.1,-24.1Q43.1,-22.2 42.4,-21.4Q40.4,-21.3 34.65,-21.2Q28.9,-21.1 21.9,-21.1Q11.5,-21.1 10.6,-21.6Q10.2,-20.4 10.2,-19.1Q10.2,-14.5 15.6,-11.6Q21,-8.7 28.6,-8.7Q34.4,-8.7 39.2,-10.4L43.9,-12.2L43.9,-12.2ZM22,-45.4Q22.1,-44.8 22.2,-43.75Q22.3,-42.7 22.5,-42.4Q22.6,-43.2 22.75,-43.75Q22.9,-44.3 23,-44.9L22.8,-45.4L22,-45.4L22,-45.4ZM15.3,-41.2Q15.4,-40.8 15.4,-40.65Q15.4,-40.5 15.5,-40.45Q15.6,-40.4 15.9,-40.3L15.9,-40.6Q16,-40.8 16.1,-41.2L15.3,-41.2L15.3,-41.2ZM32.8,-32.6Q31.7,-36.2 29.3,-38.1Q26.9,-40 23.9,-40Q20.2,-40 16.75,-37Q13.3,-34 11.5,-28.4Q16.1,-28.3 23.8,-28.75Q31.5,-29.2 33.7,-29.9Q33.6,-30.5 33.3,-31.2Q33,-31.9 32.8,-32.6L32.8,-32.6ZM36.9,-34.5Q36.6,-35.9 36.4,-36.1Q36.4,-33.3 36.7,-32.2L36.9,-32.2L36.9,-34.5L36.9,-34.5ZM10.6,-32.5Q10.8,-32.5 11.3,-32.55Q11.8,-32.6 11.95,-32.75Q12.1,-32.9 12,-33.2L10.6,-32.5L10.6,-32.5ZM30.9,-27.5Q31.1,-27.7 31.65,-27.9Q32.2,-28.1 32.4,-28.3L32.1,-28.3Q31.9,-28.1 31.1,-27.9Q30.3,-27.7 30.1,-27.5L30.9,-27.5L30.9,-27.5ZM9.4,-13.8Q9.2,-13.8 9.1,-13.2L9.4,-13.2L9.4,-13.8L9.4,-13.8ZM18.1,-45.7L18.4,-45.4L18.1,-45.4L18.1,-44.8L17.8,-44.8L18.1,-45.7Z"></path><path transform="translate(155 200)" d=""></path><path transform="translate(190 200)" d="M9.3,-66.2Q11.3,-67.2 14.6,-68.35Q17.9,-69.5 19.5,-69.7Q19.5,-65.5 19.7,-65Q22.6,-67.5 26.55,-68.75Q30.5,-70 35.1,-70Q41.8,-70 48.2,-67.45Q54.6,-64.9 58.7,-60.2Q62.8,-55.5 62.8,-49.4Q62.8,-48.2 62.4,-45.8Q61,-37.4 57.3,-32.5Q53.6,-27.6 47.55,-25.5Q41.5,-23.4 32.5,-23.4Q28.2,-23.4 21.9,-23.9Q21.1,-20.7 21.1,-16.4L21.2,-11.2Q21.4,-5.4 21.4,-0.3Q18.1,1 14.1,1.95Q10.1,2.9 8.7,2.6Q8.7,-6.9 9,-27.3L9.3,-66.2L9.3,-66.2ZM21,-56.7Q20.7,-54.6 20.7,-46.2Q20.7,-40.7 20.8,-36.5Q20.9,-32.3 21,-31.1Q21.6,-30.2 26.7,-30.2Q29.5,-30.2 32.25,-30.5Q35,-30.8 36.2,-31.2Q42.3,-33.3 45.9,-38.05Q49.5,-42.8 49.5,-48Q49.5,-51.4 47.7,-54.3Q45.9,-57.2 42.4,-58.9Q41.4,-60.2 38.45,-61Q35.5,-61.8 32,-61.8Q27.9,-61.8 24.8,-60.55Q21.7,-59.3 21,-56.7L21,-56.7ZM51.8,-56.4Q51.8,-59.8 49.9,-61.2Q50,-60.2 50.6,-58.75Q51.2,-57.3 51.8,-56.4L51.8,-56.4ZM14.2,-4.7Q13.5,-5.3 12.3,-5.8Q12.8,-5.3 13.15,-5.05Q13.5,-4.8 14.2,-4.7L14.2,-4.7Z"></path><path transform="translate(255 200)" d="M33.3,-37.8Q28.2,-37.8 23.05,-34.95Q17.9,-32.1 15.3,-27Q14.8,-20 14.8,-10.9Q14.8,-9.8 14.7,-6.7Q14.6,-3.6 14.4,-3.2Q13.6,-2.9 10.35,-1.85Q7.1,-0.8 5.7,-0.8Q4.8,-0.8 4.8,-1.3Q4.8,-6 5.1,-13.5Q5.7,-25.7 5.7,-33.4Q5.7,-41 5.1,-46.8Q5.5,-46.8 8,-47.7Q12.7,-49.6 15.5,-50Q15.4,-47.9 15.2,-46.9Q15,-45.7 15,-42.7L15,-36.5Q17,-39.6 20.45,-42.45Q23.9,-45.3 28.2,-46.8Q29.8,-45.5 31.15,-43.4Q32.5,-41.3 33.1,-39.55Q33.7,-37.8 33.3,-37.8L33.3,-37.8Z"></path><path transform="translate(290 200)" d="M21.9,-0Q15,-0 10,-3.65Q5,-7.3 2.45,-13.2Q-0.1,-19.1 -0.1,-25.7Q-0.1,-32.1 2.35,-37.65Q4.8,-43.2 9.8,-46.6Q14.8,-50 21.9,-50Q29.6,-50 34.95,-46.6Q40.3,-43.2 42.95,-37.7Q45.6,-32.2 45.6,-25.8Q45.6,-19.2 42.85,-13.25Q40.1,-7.3 34.7,-3.65Q29.3,-0 21.9,-0L21.9,-0ZM34.5,-32.7Q33.6,-37.3 30.4,-39.9Q27.2,-42.5 23.2,-42.5Q19.9,-42.5 17.05,-40.6Q14.2,-38.7 12.8,-35.1Q11.9,-33 11.35,-30.2Q10.8,-27.4 10.8,-24.4Q10.8,-18.1 13.65,-13.85Q16.5,-9.6 22.8,-9.6Q28.3,-9.6 31.7,-14.45Q35.1,-19.3 35.1,-26.8Q35.1,-29.7 34.5,-32.7L34.5,-32.7ZM40.9,-27.1Q41.3,-27.2 41.65,-28.15Q42,-29.1 42.2,-29.3L41.8,-30Q41.1,-29.2 40.85,-28.3Q40.6,-27.4 40.5,-27.1L40.9,-27.1L40.9,-27.1ZM7.7,-17.4Q8.3,-17.4 8.6,-17.5Q8.1,-17.9 6.95,-18.8Q5.8,-19.7 4.2,-20.3L4.2,-19.3Q4.9,-18.9 5.9,-18.15Q6.9,-17.4 7.7,-17.4L7.7,-17.4Z"></path><path transform="translate(337 200)" d="M4.4,-69.2Q4.4,-67.6 11.3,-55.4Q14.3,-56.6 16.4,-58.2Q18.5,-59.8 18.5,-61.4Q18.5,-62 18.3,-62.3Q16.6,-64.9 12.75,-66.65Q8.9,-68.4 4.4,-69.2L4.4,-69.2ZM9.6,-49.2Q10.1,-47.4 10.65,-39.8Q11.2,-32.2 11.2,-27.9L11.3,1.8Q11.3,7 8.3,12.05Q5.3,17.1 1,20.9Q9.7,18.9 14.15,14.95Q18.6,11 20.2,4.75Q21.8,-1.5 21.8,-12.1L21.8,-43.7Q21.8,-44.8 18.3,-46.4Q14.8,-48 9.6,-49.2L9.6,-49.2Z"></path><path transform="translate(363 200)" d="M43.9,-12.2Q39.7,-6 34.1,-2.9Q28.5,0.2 22.6,0.2Q16.8,0.2 11.8,-2.6Q6.8,-5.4 3.8,-10.55Q0.8,-15.7 0.8,-22.4Q0.8,-26.6 1.9,-30.6Q4.3,-39.4 10.35,-44.25Q16.4,-49.1 23.5,-49.1Q30.2,-49.1 35.25,-44.75Q40.3,-40.4 41.7,-32.3Q41.9,-31.5 42.5,-28.8Q43.1,-26.1 43.1,-24.1Q43.1,-22.2 42.4,-21.4Q40.4,-21.3 34.65,-21.2Q28.9,-21.1 21.9,-21.1Q11.5,-21.1 10.6,-21.6Q10.2,-20.4 10.2,-19.1Q10.2,-14.5 15.6,-11.6Q21,-8.7 28.6,-8.7Q34.4,-8.7 39.2,-10.4L43.9,-12.2L43.9,-12.2ZM22,-45.4Q22.1,-44.8 22.2,-43.75Q22.3,-42.7 22.5,-42.4Q22.6,-43.2 22.75,-43.75Q22.9,-44.3 23,-44.9L22.8,-45.4L22,-45.4L22,-45.4ZM15.3,-41.2Q15.4,-40.8 15.4,-40.65Q15.4,-40.5 15.5,-40.45Q15.6,-40.4 15.9,-40.3L15.9,-40.6Q16,-40.8 16.1,-41.2L15.3,-41.2L15.3,-41.2ZM32.8,-32.6Q31.7,-36.2 29.3,-38.1Q26.9,-40 23.9,-40Q20.2,-40 16.75,-37Q13.3,-34 11.5,-28.4Q16.1,-28.3 23.8,-28.75Q31.5,-29.2 33.7,-29.9Q33.6,-30.5 33.3,-31.2Q33,-31.9 32.8,-32.6L32.8,-32.6ZM36.9,-34.5Q36.6,-35.9 36.4,-36.1Q36.4,-33.3 36.7,-32.2L36.9,-32.2L36.9,-34.5L36.9,-34.5ZM10.6,-32.5Q10.8,-32.5 11.3,-32.55Q11.8,-32.6 11.95,-32.75Q12.1,-32.9 12,-33.2L10.6,-32.5L10.6,-32.5ZM30.9,-27.5Q31.1,-27.7 31.65,-27.9Q32.2,-28.1 32.4,-28.3L32.1,-28.3Q31.9,-28.1 31.1,-27.9Q30.3,-27.7 30.1,-27.5L30.9,-27.5L30.9,-27.5ZM9.4,-13.8Q9.2,-13.8 9.1,-13.2L9.4,-13.2L9.4,-13.8L9.4,-13.8ZM18.1,-45.7L18.4,-45.4L18.1,-45.4L18.1,-44.8L17.8,-44.8L18.1,-45.7Z"></path><path transform="translate(408 200)" d="M32.8,-41.7Q24.2,-40.6 19.7,-35.65Q15.2,-30.7 15.2,-24.3Q15.2,-20.3 17.05,-16.75Q18.9,-13.2 22.45,-11.05Q26,-8.9 30.8,-8.9Q36.8,-8.9 44,-12.5Q44.2,-12.1 41.65,-9Q39.1,-5.9 35.2,-3.3Q31.3,-0.7 26.8,-0.5Q19.5,-0.2 14.25,-3.4Q9,-6.6 6.3,-12.05Q3.6,-17.5 3.6,-23.7Q3.6,-31.4 7.65,-37.8Q11.7,-44.2 19.2,-46.8Q25.8,-49 29.5,-49Q32.1,-49 34.6,-48.15Q37.1,-47.3 40.2,-45.3Q43.6,-43 43.6,-41.4Q43.6,-40.9 43.2,-40.5Q42.8,-40.4 41.7,-38.7Q39.2,-35.5 38.5,-35.5Q38.2,-35.8 37.2,-37.2Q34,-41.8 32.8,-41.7L32.8,-41.7ZM13.2,-31.3Q12,-31.3 11.4,-31Q12.5,-31 13.2,-31.3L13.2,-31.3ZM24.6,-5.4Q26,-4.8 28,-4.8Q30.3,-4.8 32.3,-5.5Q31.3,-5.7 30.7,-5.7Q29.7,-5.7 28.75,-5.6Q27.8,-5.5 26.9,-5.5Q25.5,-5.5 24.8,-5.8L24.1,-5.5L24.6,-5.4L24.6,-5.4Z"></path><path transform="translate(453 200)" d="M41.3,-12.8Q41,-11 41,-7.5Q41,-6.8 40.9,-5.6Q40.8,-4.4 40.7,-3.7Q38.7,-1.6 35.5,-0.55Q32.3,0.5 28.7,0.5Q25.4,0.5 22.4,-0.45Q19.4,-1.4 17.7,-3Q16,-4.7 15.4,-7.25Q14.8,-9.8 14.8,-13.8L14.9,-19Q15.1,-23.4 15.1,-26.4Q15.1,-30.1 14.8,-34.4Q14.2,-34.6 12.4,-34.6L9,-34.5Q5.3,-34.3 3.6,-34.4Q2.9,-34.8 1,-38.8Q0.8,-39.3 -0.2,-41.3Q3.4,-41.4 8.25,-41.75Q13.1,-42.1 15.1,-42.4L15.1,-60.1Q16.8,-61.2 20.15,-62.4Q23.5,-63.6 25.5,-63.6Q26.3,-63.6 26.7,-63.3Q26.7,-62.3 26.6,-61Q26.5,-59.7 26.4,-58.3Q25.8,-50.5 25.8,-46.5Q25.8,-43.4 26.2,-43.5Q26.5,-43.6 33.5,-44L38.4,-44.3Q40.1,-42.5 41.45,-39.75Q42.8,-37 42.1,-36.6Q40.8,-36.2 34.6,-36.2Q27.6,-36.2 25.6,-35.7Q25.2,-33 25.2,-27.8Q25.2,-24.5 25.6,-15.7Q25.6,-11.7 27,-9.75Q28.4,-7.8 30.9,-7.8Q34.9,-7.8 41.3,-12.8L41.3,-12.8ZM21.7,-7.5Q21.4,-8.1 21.4,-9.3Q21.4,-10.2 21.75,-11.3Q22.1,-12.4 22.2,-13Q22.5,-14.5 22.2,-14.6Q20.2,-11.8 20.2,-10.1Q20.2,-8.5 21.7,-7.5L21.7,-7.5Z"></path><path transform="translate(498 200)" d=""></path><path transform="translate(533 200)" d="M49.8,-69.5Q54.2,-62.1 54.2,-60.2Q54.2,-59.3 53.3,-59Q50.5,-59.5 43.9,-59.5Q42.7,-59.5 18.5,-59.1Q17.8,-59 16.3,-59L16.3,-52.4L16.3,-40.5Q18.7,-40.6 30.85,-40.8Q43,-41 47.9,-41Q49.9,-40 50.95,-36.95Q52,-33.9 52.4,-31L47.8,-31Q33.9,-31 16.3,-31.8L16.2,-24Q16.2,-19.3 16.4,-13.3L16.5,-4.2Q13.6,-2.5 10.2,-1.45Q6.8,-0.4 3.9,-0Q3.9,-4.9 4.4,-15.9Q5.2,-34.1 5.2,-45.8Q5.2,-64.6 3,-70.8Q4.1,-70.5 8.3,-69.6Q8.9,-69.5 10.95,-68.95Q13,-68.4 15,-67.5Q15.2,-67.4 17,-67.4Q21.2,-67.4 41.7,-68.9Q49.7,-69.5 49.8,-69.5L49.8,-69.5ZM36.1,-65.3Q36,-64.9 35.95,-64.8Q35.9,-64.7 36.1,-64.3Q37.3,-62.4 38.7,-62.2L39,-63.4L37.2,-65.3L36.1,-65.3L36.1,-65.3ZM47.9,-41Q48,-41 48,-41Q48,-41 47.9,-41L47.9,-41ZM9.5,-13.9Q9.6,-14.2 10.2,-15.2Q10.8,-16.2 10.8,-17.5Q10.8,-18.3 10.7,-18.7Q8.2,-14.3 8.3,-14.1Q8.4,-13.8 8.6,-13.8Q8.8,-13.8 9,-13.7Q9.2,-13.8 9.5,-13.9L9.5,-13.9Z"></path><path transform="translate(590 200)" d="M21.9,-0Q15,-0 10,-3.65Q5,-7.3 2.45,-13.2Q-0.1,-19.1 -0.1,-25.7Q-0.1,-32.1 2.35,-37.65Q4.8,-43.2 9.8,-46.6Q14.8,-50 21.9,-50Q29.6,-50 34.95,-46.6Q40.3,-43.2 42.95,-37.7Q45.6,-32.2 45.6,-25.8Q45.6,-19.2 42.85,-13.25Q40.1,-7.3 34.7,-3.65Q29.3,-0 21.9,-0L21.9,-0ZM34.5,-32.7Q33.6,-37.3 30.4,-39.9Q27.2,-42.5 23.2,-42.5Q19.9,-42.5 17.05,-40.6Q14.2,-38.7 12.8,-35.1Q11.9,-33 11.35,-30.2Q10.8,-27.4 10.8,-24.4Q10.8,-18.1 13.65,-13.85Q16.5,-9.6 22.8,-9.6Q28.3,-9.6 31.7,-14.45Q35.1,-19.3 35.1,-26.8Q35.1,-29.7 34.5,-32.7L34.5,-32.7ZM40.9,-27.1Q41.3,-27.2 41.65,-28.15Q42,-29.1 42.2,-29.3L41.8,-30Q41.1,-29.2 40.85,-28.3Q40.6,-27.4 40.5,-27.1L40.9,-27.1L40.9,-27.1ZM7.7,-17.4Q8.3,-17.4 8.6,-17.5Q8.1,-17.9 6.95,-18.8Q5.8,-19.7 4.2,-20.3L4.2,-19.3Q4.9,-18.9 5.9,-18.15Q6.9,-17.4 7.7,-17.4L7.7,-17.4Z"></path><path transform="translate(637 200)" d="M33.3,-37.8Q28.2,-37.8 23.05,-34.95Q17.9,-32.1 15.3,-27Q14.8,-20 14.8,-10.9Q14.8,-9.8 14.7,-6.7Q14.6,-3.6 14.4,-3.2Q13.6,-2.9 10.35,-1.85Q7.1,-0.8 5.7,-0.8Q4.8,-0.8 4.8,-1.3Q4.8,-6 5.1,-13.5Q5.7,-25.7 5.7,-33.4Q5.7,-41 5.1,-46.8Q5.5,-46.8 8,-47.7Q12.7,-49.6 15.5,-50Q15.4,-47.9 15.2,-46.9Q15,-45.7 15,-42.7L15,-36.5Q17,-39.6 20.45,-42.45Q23.9,-45.3 28.2,-46.8Q29.8,-45.5 31.15,-43.4Q32.5,-41.3 33.1,-39.55Q33.7,-37.8 33.3,-37.8L33.3,-37.8Z"></path><path transform="translate(672 200)" d=""></path><path transform="translate(707 200)" d="M63.2,-68.2Q64.3,-68.5 67,-68.5Q70.2,-68.5 73.25,-68.05Q76.3,-67.6 77.4,-66.6Q75.3,-61 71.6,-47.45Q67.9,-33.9 66.9,-30.3Q63.1,-16.2 61.05,-9.1Q59,-2 58.5,-1.8Q58.3,-1.8 55.1,-1.2Q51.9,-0.6 50.7,-0.6Q50.1,-0.6 49.3,-0.8Q49.8,-2.2 41.2,-42.3Q39.5,-35.3 35.6,-19.3Q31.7,-3.3 31.5,-2.8Q31.1,-2.6 29.25,-1.75Q27.4,-0.9 25.35,-0.4Q23.3,0.1 21.5,-0Q19.4,-4.2 17.2,-11.75Q15,-19.3 11.6,-32.6Q5.9,-54.9 2.2,-66.6Q4.1,-67.2 7.7,-67.2Q10.5,-67.2 12.8,-66.75Q15.1,-66.3 15.6,-65.5L17.2,-58Q24.6,-22.8 25.8,-18.9Q27.7,-29 30.9,-42.4Q32.6,-49.4 33.35,-53.25Q34.1,-57.1 34.1,-60.3Q34.1,-60.9 33.5,-63.85Q32.9,-66.8 32.5,-68.2Q33.2,-68.1 34.05,-68.1Q34.9,-68.1 35.8,-68Q40.7,-67.9 43.85,-67.45Q47,-67 48,-65.5Q48.5,-64.7 48.9,-59.8Q49,-59.1 49.15,-57.1Q49.3,-55.1 49.6,-54L54.3,-25.3Q56,-33.1 59.55,-49.6Q63.1,-66.1 63.2,-68.2L63.2,-68.2ZM49.2,-0.9Q49.2,-0.9 49.25,-0.85Q49.3,-0.8 49.3,-0.8L49.2,-0.9L49.2,-0.9Z"></path><path transform="translate(787 200)" d="M43.9,-12.2Q39.7,-6 34.1,-2.9Q28.5,0.2 22.6,0.2Q16.8,0.2 11.8,-2.6Q6.8,-5.4 3.8,-10.55Q0.8,-15.7 0.8,-22.4Q0.8,-26.6 1.9,-30.6Q4.3,-39.4 10.35,-44.25Q16.4,-49.1 23.5,-49.1Q30.2,-49.1 35.25,-44.75Q40.3,-40.4 41.7,-32.3Q41.9,-31.5 42.5,-28.8Q43.1,-26.1 43.1,-24.1Q43.1,-22.2 42.4,-21.4Q40.4,-21.3 34.65,-21.2Q28.9,-21.1 21.9,-21.1Q11.5,-21.1 10.6,-21.6Q10.2,-20.4 10.2,-19.1Q10.2,-14.5 15.6,-11.6Q21,-8.7 28.6,-8.7Q34.4,-8.7 39.2,-10.4L43.9,-12.2L43.9,-12.2ZM22,-45.4Q22.1,-44.8 22.2,-43.75Q22.3,-42.7 22.5,-42.4Q22.6,-43.2 22.75,-43.75Q22.9,-44.3 23,-44.9L22.8,-45.4L22,-45.4L22,-45.4ZM15.3,-41.2Q15.4,-40.8 15.4,-40.65Q15.4,-40.5 15.5,-40.45Q15.6,-40.4 15.9,-40.3L15.9,-40.6Q16,-40.8 16.1,-41.2L15.3,-41.2L15.3,-41.2ZM32.8,-32.6Q31.7,-36.2 29.3,-38.1Q26.9,-40 23.9,-40Q20.2,-40 16.75,-37Q13.3,-34 11.5,-28.4Q16.1,-28.3 23.8,-28.75Q31.5,-29.2 33.7,-29.9Q33.6,-30.5 33.3,-31.2Q33,-31.9 32.8,-32.6L32.8,-32.6ZM36.9,-34.5Q36.6,-35.9 36.4,-36.1Q36.4,-33.3 36.7,-32.2L36.9,-32.2L36.9,-34.5L36.9,-34.5ZM10.6,-32.5Q10.8,-32.5 11.3,-32.55Q11.8,-32.6 11.95,-32.75Q12.1,-32.9 12,-33.2L10.6,-32.5L10.6,-32.5ZM30.9,-27.5Q31.1,-27.7 31.65,-27.9Q32.2,-28.1 32.4,-28.3L32.1,-28.3Q31.9,-28.1 31.1,-27.9Q30.3,-27.7 30.1,-27.5L30.9,-27.5L30.9,-27.5ZM9.4,-13.8Q9.2,-13.8 9.1,-13.2L9.4,-13.2L9.4,-13.8L9.4,-13.8ZM18.1,-45.7L18.4,-45.4L18.1,-45.4L18.1,-44.8L17.8,-44.8L18.1,-45.7Z"></path><path transform="translate(832 200)" d="M41,-43.6Q44.3,-40.5 45.9,-35.9Q47.5,-31.3 47.5,-26Q47.5,-20.9 46.1,-15.9Q44.7,-10.9 42.3,-7.4Q39.9,-3.9 37,-2.9Q31.1,-0.8 26,-0.8Q18.8,-0.8 14,-4.8Q12.9,-4.3 10.1,-2.3Q9.8,-2.1 8.25,-1Q6.7,0.1 6,0.1Q5.4,0.1 5.4,-0.9Q5.6,-4.8 5.85,-22.6Q6.1,-40.4 6.1,-54.7Q6.1,-71.6 5.7,-75.9Q7.8,-77 10.85,-78Q13.9,-79 15.8,-79Q16.8,-79 17.4,-78.7Q16.1,-73.7 15.8,-51.9Q15.8,-46 15.7,-44.8Q19.8,-48.5 26.6,-48.5Q30.8,-48.5 34.75,-47.1Q38.7,-45.7 41,-43.6L41,-43.6ZM13.5,-68.7Q13.4,-68.3 13.25,-67.95Q13.1,-67.6 13.1,-67.2L13.7,-67.4Q13.9,-68 14.3,-68.6Q13.8,-68.7 13.5,-68.7L13.5,-68.7ZM12.2,-53.2Q11.6,-55 11.6,-57.8L11.7,-60.4Q11.8,-61.2 11.8,-62.7Q11.8,-65.2 11.5,-65.3Q10.4,-61.3 10.4,-58.3Q10.4,-54.5 12.2,-53.2L12.2,-53.2ZM27.7,-9.5Q32.2,-11.1 34.75,-15.95Q37.3,-20.8 37.3,-26.5Q37.3,-32.5 34.5,-36.65Q31.7,-40.8 26.6,-40.8Q24.2,-40.8 21.5,-39.8Q14.8,-37.3 14.7,-32.7Q14.7,-30.7 14.6,-29.1Q14.4,-23.9 14.4,-19.7Q14.4,-11.1 15.6,-10.6Q18.5,-8.7 22.9,-8.7Q25.6,-8.7 27.7,-9.5L27.7,-9.5ZM38.5,-25.7Q39.4,-26.4 39.4,-27.6Q39.4,-28.1 39.1,-28.5L38.2,-25L38.5,-25L38.5,-25.7L38.5,-25.7ZM43.2,-18.1Q43.5,-18.5 43.6,-18.75Q43.7,-19 43.5,-19.4Q43.4,-18.9 43.2,-18.5Q43,-18.1 42.9,-17.5L43.2,-17.5L43.2,-18.1L43.2,-18.1ZM8.2,-17.7Q8.7,-17.2 9.3,-17.1Q9.9,-17 11.1,-17.1L11.1,-17.4L8.2,-17.7L8.2,-17.7Z"></path></svg>