<svg  xmlns="http://www.w3.org/2000/svg" xmlns:xlink="http://www.w3.org/1999/xlink" width="968" height="300" viewBox="0 0 992 324"><path transform="translate(0 100)" d="M86.2,-33.5L86.2,-30.5L13.5,-30.5L13.5,-33.5L86.2,-33.5ZM82.6,-62.8L85.6,-66.1L92.4,-60.8Q91.9,-60.2 90.7,-59.7Q89.5,-59.2 88,-58.9L88,-24Q88,-23.7 87.35,-23.3Q86.7,-22.9 85.85,-22.55Q85,-22.2 84.2,-22.2L83.6,-22.2L83.6,-62.8L82.6,-62.8ZM15.6,-22.8Q15.6,-22.6 15.1,-22.2Q14.6,-21.8 13.85,-21.5Q13.1,-21.2 12.1,-21.2L11.3,-21.2L11.3,-62.8L11.3,-65.4L11.3,-65.4L16.2,-62.8L85.7,-62.8L85.7,-59.8L15.6,-59.8L15.6,-22.8ZM55.4,-82.4Q55.2,-81.4 54.45,-80.7Q53.7,-80 51.8,-79.7L51.8,5.4Q51.8,5.8 51.3,6.3Q50.8,6.8 50,7.1Q49.2,7.4 48.3,7.4L47.4,7.4L47.4,-83.4L55.4,-82.4Z"></path><path transform="translate(100 100)" d="M41.4,-83.2Q46.7,-81 50.05,-78.55Q53.4,-76.1 55.25,-73.8Q57.1,-71.5 57.7,-69.55Q58.3,-67.6 57.9,-66.35Q57.5,-65.1 56.5,-64.75Q55.5,-64.4 54.1,-65.3Q53.2,-68.1 50.95,-71.25Q48.7,-74.4 45.8,-77.35Q42.9,-80.3 40.2,-82.3L41.4,-83.2ZM78.3,-61.2Q74.7,-48.4 68.65,-37.7Q62.6,-27 53.75,-18.45Q44.9,-9.9 32.9,-3.35Q20.9,3.2 5.4,7.7L4.5,6Q23.7,-0.4 37.35,-10.1Q51,-19.8 59.65,-32.65Q68.3,-45.5 72.3,-61.2L78.3,-61.2ZM87.5,-67.2Q87.5,-67.2 88.3,-66.55Q89.1,-65.9 90.35,-64.9Q91.6,-63.9 92.95,-62.75Q94.3,-61.6 95.4,-60.5Q95,-58.9 92.9,-58.9L5.9,-58.9L5,-61.9L83.1,-61.9L87.5,-67.2ZM27.2,-61.2Q30.6,-48.6 36.8,-38.25Q43,-27.9 51.85,-19.9Q60.7,-11.9 71.95,-6.25Q83.2,-0.6 96.6,2.6L96.3,3.7Q94.6,3.7 93.1,4.65Q91.6,5.6 90.8,7.3Q77.9,3.5 67.25,-2.5Q56.6,-8.5 48.3,-16.85Q40,-25.2 34.2,-35.95Q28.4,-46.7 25.2,-59.9L27.2,-61.2Z"></path><path transform="translate(200 100)" d="M51.6,-61.4Q58.1,-54.1 62.55,-47.3Q67,-40.5 69.8,-34.6Q72.6,-28.7 73.9,-24Q75.2,-19.3 75.3,-16.25Q75.4,-13.2 74.55,-12.15Q73.7,-11.1 72.1,-12.4Q70.8,-16.9 68.95,-23Q67.1,-29.1 64.5,-35.75Q61.9,-42.4 58.35,-48.8Q54.8,-55.2 50.1,-60.4L51.6,-61.4ZM80.2,-66.2Q79.9,-65.2 79.05,-64.8Q78.2,-64.4 76.1,-64.4Q74.5,-57.7 71.95,-50Q69.4,-42.3 65.8,-34.45Q62.2,-26.6 57.5,-19.25Q52.8,-11.9 46.8,-5.9L45.4,-7Q50.7,-13.2 54.9,-20.8Q59.1,-28.4 62.35,-36.55Q65.6,-44.7 67.85,-52.85Q70.1,-61 71.4,-68.2L80.2,-66.2ZM21.7,-61.4Q28.3,-55.2 33,-49.25Q37.7,-43.3 40.65,-38.1Q43.6,-32.9 45.15,-28.75Q46.7,-24.6 46.9,-21.8Q47.1,-19 46.35,-18Q45.6,-17 44,-18.1Q42.4,-22.2 40.3,-27.6Q38.2,-33 35.4,-38.85Q32.6,-44.7 28.9,-50.25Q25.2,-55.8 20.4,-60.3L21.7,-61.4ZM50.1,-66.3Q49.8,-65.3 48.95,-64.85Q48.1,-64.4 46,-64.4Q44.6,-58.1 42.35,-50.8Q40.1,-43.5 36.95,-35.9Q33.8,-28.3 29.55,-21.2Q25.3,-14.1 19.9,-8.2L18.5,-9.3Q23.2,-15.3 26.9,-22.7Q30.6,-30.1 33.45,-38Q36.3,-45.9 38.25,-53.65Q40.2,-61.4 41.3,-68.2L50.1,-66.3ZM83.1,-77.3L85.8,-80.7L93,-75.2Q92.5,-74.7 91.3,-74.15Q90.1,-73.6 88.5,-73.3L88.5,-0.7Q88.5,1.3 87.9,2.95Q87.3,4.6 85.2,5.7Q83.1,6.8 78.6,7.3Q78.3,6.3 77.7,5.5Q77.1,4.7 76,4.2Q74.6,3.5 72.05,2.95Q69.5,2.4 65.4,2L65.4,0.4Q65.4,0.4 67.4,0.55Q69.4,0.7 72.2,0.9Q75,1.1 77.5,1.25Q80,1.4 80.9,1.4Q82.8,1.4 83.45,0.75Q84.1,0.1 84.1,-1.2L84.1,-77.3L83.1,-77.3ZM15.9,5.5Q15.9,5.8 15.45,6.2Q15,6.6 14.25,6.95Q13.5,7.3 12.4,7.3L11.5,7.3L11.5,-77.3L11.5,-80L11.5,-80L16.4,-77.3L87.1,-77.3L87.1,-74.3L15.9,-74.3L15.9,5.5Z"></path><path transform="translate(300 100)" d="M85,-68.1L88.7,-71.8L95.5,-65.2Q95,-64.8 94.05,-64.65Q93.1,-64.5 91.6,-64.4Q89.7,-61.7 86.5,-58.45Q83.3,-55.2 80.6,-52.9L79.1,-53.7Q80.3,-55.7 81.65,-58.3Q83,-60.9 84.2,-63.55Q85.4,-66.2 86.1,-68.1L85,-68.1ZM16.9,-73Q18.3,-67.6 17.75,-63.6Q17.2,-59.6 15.6,-57.05Q14,-54.5 12.1,-53.2Q11,-52.4 9.7,-52Q8.4,-51.6 7.35,-51.8Q6.3,-52 5.7,-52.9Q5.2,-54.1 5.8,-55.3Q6.4,-56.5 7.7,-57.3Q9.8,-58.5 11.6,-60.8Q13.4,-63.1 14.35,-66.25Q15.3,-69.4 15,-72.9L16.9,-73ZM87.3,-68.1L87.3,-65.1L15.6,-65.1L15.6,-68.1L87.3,-68.1ZM44.8,-83.6Q48.8,-82.1 51.25,-80.25Q53.7,-78.4 54.85,-76.55Q56,-74.7 56.15,-73.15Q56.3,-71.6 55.7,-70.6Q55.1,-69.6 54.05,-69.4Q53,-69.2 51.7,-70.1Q51.1,-73.3 48.65,-76.95Q46.2,-80.6 43.6,-82.8L44.8,-83.6ZM67.4,-53.7L71.2,-57.4L77.9,-51.2Q77.3,-50.7 76.3,-50.55Q75.3,-50.4 73.8,-50.3Q69.5,-47.3 63.7,-44Q57.9,-40.7 52,-38.7L50,-38.7Q53.5,-40.5 57.1,-43.2Q60.7,-45.9 63.75,-48.75Q66.8,-51.6 68.6,-53.7L67.4,-53.7ZM55.7,-40.2Q55.3,-38.1 52.1,-37.7L52.1,-0.6Q52.1,1.4 51.55,3.05Q51,4.7 49.05,5.75Q47.1,6.8 42.9,7.2Q42.6,6.2 42.1,5.35Q41.6,4.5 40.5,3.9Q39.2,3.3 36.9,2.85Q34.6,2.4 31,2.1L31,0.4Q31,0.4 32.8,0.55Q34.6,0.7 37.15,0.85Q39.7,1 41.9,1.15Q44.1,1.3 45,1.3Q46.6,1.3 47.15,0.8Q47.7,0.3 47.7,-1L47.7,-41.2L55.7,-40.2ZM86.9,-34Q86.9,-34 87.7,-33.35Q88.5,-32.7 89.75,-31.7Q91,-30.7 92.35,-29.55Q93.7,-28.4 94.9,-27.3Q94.6,-25.7 92.3,-25.7L5.8,-25.7L4.9,-28.7L82.5,-28.7L86.9,-34ZM71.6,-53.7L71.6,-50.7L22.4,-50.7L21.5,-53.7L71.6,-53.7Z"></path><path transform="translate(400 100)" d="M88.1,-53Q88.1,-53 88.85,-52.4Q89.6,-51.8 90.8,-50.85Q92,-49.9 93.3,-48.8Q94.6,-47.7 95.7,-46.6Q95.3,-45 93.1,-45L35.3,-45L34.5,-48L84.1,-48L88.1,-53ZM70.4,-82.2Q70.2,-81.2 69.45,-80.5Q68.7,-79.8 66.8,-79.5L66.8,5.2Q66.8,5.6 66.3,6.05Q65.8,6.5 65,6.8Q64.2,7.1 63.3,7.1L62.4,7.1L62.4,-83.2L70.4,-82.2ZM19.2,-4.9Q21.3,-6 25.1,-8.1Q28.9,-10.2 33.65,-13Q38.4,-15.8 43.3,-18.8L44.2,-17.3Q41.9,-15.6 38.25,-12.85Q34.6,-10.1 30.3,-6.9Q26,-3.7 21.4,-0.4L19.2,-4.9ZM24.5,-52.7L25.5,-52.1L25.5,-4.8L21.7,-3.4L23.4,-5.3Q23.9,-3.6 23.5,-2.25Q23.1,-0.9 22.35,-0.1Q21.6,0.7 21,0.9L18.1,-5.4Q20.1,-6.4 20.6,-7Q21.1,-7.6 21.1,-8.9L21.1,-52.7L24.5,-52.7ZM21.2,-56.5L23.7,-59.3L29,-54.8Q28.6,-54.2 27.5,-53.65Q26.4,-53.1 24.8,-52.8L25.5,-53.7L25.5,-48.6L21.1,-48.6L21.1,-56.5L21.2,-56.5ZM16.2,-83.2Q21.6,-80.3 25,-77.45Q28.4,-74.6 30.25,-72Q32.1,-69.4 32.65,-67.35Q33.2,-65.3 32.8,-64Q32.4,-62.7 31.35,-62.4Q30.3,-62.1 28.9,-63Q28,-66 25.65,-69.6Q23.3,-73.2 20.4,-76.6Q17.5,-80 14.9,-82.4L16.2,-83.2ZM26.4,-56.5L26.4,-53.5L5.9,-53.5L5,-56.5L26.4,-56.5Z"></path><path transform="translate(500 100)" d="M19.1,-83.6L27.9,-82.6Q27.8,-81.7 27,-80.9Q26.2,-80.1 24.3,-79.8Q24.2,-68.9 25.6,-57.65Q27,-46.4 30.15,-36Q33.3,-25.6 38.5,-17.05Q43.7,-8.5 51.2,-3Q52.6,-1.8 53.25,-1.85Q53.9,-1.9 54.6,-3.4Q55.4,-5.1 56.45,-8.25Q57.5,-11.4 58.3,-14.2L59.7,-14L58,0.5Q60.2,3 60.6,4Q61,5 60.5,5.7Q59.8,6.7 58.55,6.75Q57.3,6.8 55.75,6.2Q54.2,5.6 52.4,4.5Q50.6,3.4 48.9,2Q41,-4.3 35.35,-13.4Q29.7,-22.5 26.1,-33.7Q22.5,-44.9 20.8,-57.55Q19.1,-70.2 19.1,-83.6ZM47.9,-50.2L55.2,-47.1Q54.8,-46.3 54,-46Q53.2,-45.7 51.2,-46Q46.4,-34.6 39.65,-25.2Q32.9,-15.8 24.3,-8.4Q15.7,-1 5.2,4.8L4,3Q13.9,-3.2 22.05,-10.9Q30.2,-18.6 36.65,-28.3Q43.1,-38 47.9,-50.2ZM32.1,-78.8Q37.2,-77.9 40.55,-76.3Q43.9,-74.7 45.8,-72.95Q47.7,-71.2 48.3,-69.5Q48.9,-67.8 48.55,-66.6Q48.2,-65.4 47.1,-64.95Q46,-64.5 44.5,-65.2Q43.6,-67.5 41.4,-69.85Q39.2,-72.2 36.45,-74.3Q33.7,-76.4 31.1,-77.7L32.1,-78.8ZM66.3,-74.6L74.4,-73.6Q74.2,-72.6 73.4,-71.85Q72.6,-71.1 70.7,-70.9L70.7,-13.8Q70.7,-13.4 70.2,-12.95Q69.7,-12.5 68.9,-12.15Q68.1,-11.8 67.2,-11.8L66.3,-11.8L66.3,-74.6ZM85.9,-81.4L94,-80.4Q93.8,-79.4 92.95,-78.65Q92.1,-77.9 90.3,-77.7L90.3,-0.8Q90.3,1.3 89.75,3Q89.2,4.7 87.35,5.8Q85.5,6.9 81.5,7.4Q81.2,6.3 80.7,5.4Q80.2,4.5 79.2,3.8Q78,3.1 75.85,2.65Q73.7,2.2 70.2,1.8L70.2,0.2Q70.2,0.2 71.9,0.35Q73.6,0.5 75.95,0.65Q78.3,0.8 80.4,0.95Q82.5,1.1 83.2,1.1Q84.8,1.1 85.35,0.55Q85.9,-0 85.9,-1.3L85.9,-81.4ZM3.3,-51.4L51.3,-58.6L54.2,-63.4Q54.2,-63.4 55.45,-62.65Q56.7,-61.9 58.4,-60.85Q60.1,-59.8 61.4,-58.8Q61.4,-57 59.3,-56.8L4.5,-48.7L3.3,-51.4Z"></path><path transform="translate(0 200)" d="M17,-0L17,-2.9L31.3,-4L33.2,-4L47.5,-2.9L47.5,-0L17,-0ZM28.7,-0Q28.9,-8.3 28.95,-16.6Q29,-24.9 29,-33.3L29,-39Q29,-47.4 28.95,-55.75Q28.9,-64.1 28.7,-72.3L35.8,-72.3Q35.7,-64.1 35.65,-55.75Q35.6,-47.4 35.6,-39L35.6,-33.3Q35.6,-24.9 35.65,-16.6Q35.7,-8.3 35.8,-0L28.7,-0ZM2.2,-54L3.1,-72.3L61.4,-72.3L62.4,-54L58.5,-54L55.6,-72.3L58.7,-68.9L5.8,-68.9L9,-72.3L6,-54L2.2,-54Z"></path><path transform="translate(64 200)" d="M4.4,-0L4.4,-2.7L15.4,-3.8L17.4,-3.8L27.7,-2.7L27.7,-0L4.4,-0ZM13.1,-0Q13.2,-2.4 13.25,-6.45Q13.3,-10.5 13.35,-14.9Q13.4,-19.3 13.4,-22.6L13.4,-74.2L4.2,-74.6L4.2,-77.3L18.1,-80L19.7,-79.1L19.4,-63.7L19.4,-39.9L19.5,-38.7L19.5,-22.6Q19.5,-19.3 19.55,-14.9Q19.6,-10.5 19.65,-6.45Q19.7,-2.4 19.8,-0L13.1,-0ZM38.4,-0L38.4,-2.7L49.3,-3.8L51.3,-3.8L61.7,-2.7L61.7,-0L38.4,-0ZM47,-0Q47.1,-2.4 47.15,-6.4Q47.2,-10.4 47.25,-14.8Q47.3,-19.2 47.3,-22.6L47.3,-33.4Q47.3,-41.2 44.7,-44.3Q42.1,-47.4 37.5,-47.4Q33.9,-47.4 29.1,-45.3Q24.3,-43.2 18.5,-36.8L17,-39.9L18.4,-39.9Q23.7,-46.4 29.2,-49.3Q34.7,-52.2 39.9,-52.2Q46.3,-52.2 49.85,-47.95Q53.4,-43.7 53.4,-33.4L53.4,-22.6Q53.4,-19.2 53.45,-14.8Q53.5,-10.4 53.6,-6.4Q53.7,-2.4 53.8,-0L47,-0Z"></path><path transform="translate(129 200)" d="M29.8,1.4Q22.7,1.4 17.1,-1.5Q11.5,-4.4 8.35,-10.35Q5.2,-16.3 5.2,-25.2Q5.2,-33.4 8.45,-39.45Q11.7,-45.5 17.1,-48.85Q22.5,-52.2 28.9,-52.2Q35.1,-52.2 39.55,-49.55Q44,-46.9 46.4,-42.35Q48.8,-37.8 48.8,-32Q48.8,-28.3 48.2,-26L8.2,-26L8.2,-29L38.7,-29Q41.1,-29 41.95,-30.25Q42.8,-31.5 42.8,-34.1Q42.8,-40.4 39.15,-44.75Q35.5,-49.1 28.8,-49.1Q24,-49.1 20.1,-46.3Q16.2,-43.5 13.9,-38.35Q11.6,-33.2 11.6,-26.3Q11.6,-18.3 14.1,-13.1Q16.6,-7.9 21,-5.45Q25.4,-3 31.1,-3Q36.4,-3 40.45,-4.8Q44.5,-6.6 47.7,-10.2L49.2,-8.8Q45.9,-4.1 41.1,-1.35Q36.3,1.4 29.8,1.4Z"></path><path transform="translate(183 200)" d=""></path><path transform="translate(209 200)" d="M5.6,-0L5.6,-2.9L18.8,-4L20.9,-4L34.8,-2.9L34.8,-0L5.6,-0ZM16.2,-0Q16.4,-8.3 16.4,-16.6Q16.4,-24.9 16.4,-33.3L16.4,-39Q16.4,-47.4 16.4,-55.75Q16.4,-64.1 16.2,-72.3L23.3,-72.3Q23.2,-64.1 23.15,-55.75Q23.1,-47.4 23.1,-39L23.1,-32Q23.1,-24.4 23.15,-16.35Q23.2,-8.3 23.3,-0L16.2,-0ZM19.8,-29.8L19.8,-32.9L29.5,-32.9Q37.6,-32.9 42.6,-35.25Q47.6,-37.6 49.85,-41.8Q52.1,-46 52.1,-51.4Q52.1,-60 47.4,-64.55Q42.7,-69.1 32.5,-69.1L19.8,-69.1L19.8,-72.3L33.4,-72.3Q46.2,-72.3 52.5,-66.65Q58.8,-61 58.8,-51.4Q58.8,-45.3 55.75,-40.4Q52.7,-35.5 46.25,-32.65Q39.8,-29.8 29.7,-29.8L19.8,-29.8ZM5.6,-69.4L5.6,-72.3L19.8,-72.3L19.8,-68.4L18.8,-68.4L5.6,-69.4Z"></path><path transform="translate(272 200)" d="M4.4,-0L4.4,-2.7L15.5,-3.9L17.8,-3.9L29.2,-2.7L29.2,-0L4.4,-0ZM13.1,-0Q13.2,-2.4 13.25,-6.45Q13.3,-10.5 13.35,-14.9Q13.4,-19.3 13.4,-22.6L13.4,-28.1Q13.4,-33.3 13.35,-37.55Q13.3,-41.8 13.1,-45.5L3.9,-45.9L3.9,-48.5L17.6,-51.9L18.9,-51.1L19.5,-37.1L19.5,-37L19.5,-22.6Q19.5,-19.3 19.55,-14.9Q19.6,-10.5 19.65,-6.45Q19.7,-2.4 19.8,-0L13.1,-0ZM19.4,-31.8L17.7,-36.7L19.1,-36.7Q20.7,-41.3 23.4,-44.8Q26.1,-48.3 29.45,-50.25Q32.8,-52.2 36.4,-52.2Q39.1,-52.2 41.15,-51.2Q43.2,-50.2 43.9,-48.6Q43.9,-46.2 42.8,-44.9Q41.7,-43.6 39.3,-43.6Q37.7,-43.6 36.35,-44.4Q35,-45.2 33.3,-46.8L31,-48.8L35.9,-48.8Q30.3,-47.7 26.3,-43.6Q22.3,-39.5 19.4,-31.8Z"></path><path transform="translate(315 200)" d="M29.2,1.4Q23.1,1.4 17.6,-1.5Q12.1,-4.4 8.65,-10.35Q5.2,-16.3 5.2,-25.3Q5.2,-34.3 8.7,-40.3Q12.2,-46.3 17.7,-49.25Q23.2,-52.2 29.2,-52.2Q35.3,-52.2 40.8,-49.25Q46.3,-46.3 49.8,-40.3Q53.3,-34.3 53.3,-25.3Q53.3,-16.3 49.8,-10.35Q46.3,-4.4 40.8,-1.5Q35.3,1.4 29.2,1.4ZM29.2,-1.6Q37.2,-1.6 41.85,-7.75Q46.5,-13.9 46.5,-25.2Q46.5,-36.5 41.85,-42.8Q37.2,-49.1 29.2,-49.1Q21.2,-49.1 16.55,-42.8Q11.9,-36.5 11.9,-25.2Q11.9,-13.9 16.55,-7.75Q21.2,-1.6 29.2,-1.6Z"></path><path transform="translate(373 200)" d="M0.6,27.1Q-3.1,27.1 -5.05,25.9Q-7,24.7 -7.2,23.2Q-6.4,19.9 -2.4,19.9Q-0.8,19.9 0.7,20.4Q2.2,20.9 4,22.3L7.5,24.6L7.5,25.3L4.4,25.3L4.4,24.3Q6,23.6 7.5,22.4Q9,21.2 10,19.5Q11.4,17 12.1,12.95Q12.8,8.9 13,3.3Q13.2,-2.3 13.2,-9.2L13.2,-28.1Q13.2,-33.2 13.15,-37.5Q13.1,-41.8 12.9,-45.6L3.7,-45.9L3.7,-48.5L18.1,-51.9L19.5,-51.1L19.1,-37.7L19.1,-11.4Q19.1,-1.8 18.7,4.5Q18.3,10.8 16.9,14.9Q15.5,19 12.4,22Q9.8,24.6 7.1,25.85Q4.4,27.1 0.6,27.1ZM15.5,-65.5Q13.5,-65.5 11.95,-66.85Q10.4,-68.2 10.4,-70.4Q10.4,-72.6 11.95,-74Q13.5,-75.4 15.5,-75.4Q17.5,-75.4 19,-74Q20.5,-72.6 20.5,-70.4Q20.5,-68.2 19,-66.85Q17.5,-65.5 15.5,-65.5Z"></path><path transform="translate(403 200)" d="M29.8,1.4Q22.7,1.4 17.1,-1.5Q11.5,-4.4 8.35,-10.35Q5.2,-16.3 5.2,-25.2Q5.2,-33.4 8.45,-39.45Q11.7,-45.5 17.1,-48.85Q22.5,-52.2 28.9,-52.2Q35.1,-52.2 39.55,-49.55Q44,-46.9 46.4,-42.35Q48.8,-37.8 48.8,-32Q48.8,-28.3 48.2,-26L8.2,-26L8.2,-29L38.7,-29Q41.1,-29 41.95,-30.25Q42.8,-31.5 42.8,-34.1Q42.8,-40.4 39.15,-44.75Q35.5,-49.1 28.8,-49.1Q24,-49.1 20.1,-46.3Q16.2,-43.5 13.9,-38.35Q11.6,-33.2 11.6,-26.3Q11.6,-18.3 14.1,-13.1Q16.6,-7.9 21,-5.45Q25.4,-3 31.1,-3Q36.4,-3 40.45,-4.8Q44.5,-6.6 47.7,-10.2L49.2,-8.8Q45.9,-4.1 41.1,-1.35Q36.3,1.4 29.8,1.4Z"></path><path transform="translate(457 200)" d="M29.2,1.4Q22,1.4 16.6,-1.75Q11.2,-4.9 8.2,-10.8Q5.2,-16.7 5.2,-24.8Q5.2,-33.5 8.75,-39.65Q12.3,-45.8 18,-49Q23.7,-52.2 30.2,-52.2Q34.4,-52.2 38.05,-50.7Q41.7,-49.2 44.35,-46.45Q47,-43.7 48.2,-39.8Q47.5,-36.8 44.6,-36.8Q42.8,-36.8 41.85,-37.65Q40.9,-38.5 40.4,-40.4L37.6,-49L41.9,-45.2Q38.8,-47.4 36,-48.25Q33.2,-49.1 30.3,-49.1Q25,-49.1 20.75,-46.2Q16.5,-43.3 14.05,-38.05Q11.6,-32.8 11.6,-25.5Q11.6,-14.8 17,-8.9Q22.4,-3 30.9,-3Q35.4,-3 39.4,-4.7Q43.4,-6.4 46.9,-10.1L48.4,-8.8Q45.2,-4.1 40.6,-1.35Q36,1.4 29.2,1.4Z"></path><path transform="translate(510 200)" d="M14.9,-47.2L14.9,-50.8L32.9,-50.8L32.9,-47.2L14.9,-47.2ZM23.2,1.4Q17.3,1.4 14.55,-1.75Q11.8,-4.9 11.8,-11.2Q11.8,-13.5 11.85,-15.25Q11.9,-17 11.9,-19.6L11.9,-47.2L1.4,-47.2L1.4,-50.2L13.9,-51.1L11.9,-49.6L14.2,-66.3L18.5,-66.3L18,-49.3L18,-48.1L18,-11.5Q18,-6.7 19.75,-4.55Q21.5,-2.4 24.9,-2.4Q27.2,-2.4 28.95,-3Q30.7,-3.6 32.7,-4.7L34.1,-2.9Q32.1,-0.8 29.4,0.3Q26.7,1.4 23.2,1.4Z"></path><path transform="translate(546 200)" d=""></path><path transform="translate(572 200)" d="M5.6,-0L5.6,-2.9L18.8,-4L20.9,-4L34.8,-2.9L34.8,-0L5.6,-0ZM16.2,-0Q16.4,-8.3 16.4,-16.6Q16.4,-24.9 16.4,-33.3L16.4,-39Q16.4,-47.4 16.4,-55.75Q16.4,-64.1 16.2,-72.3L23.3,-72.3Q23.2,-64.1 23.15,-55.6Q23.1,-47.1 23.1,-37.7L23.1,-35.7Q23.1,-25.5 23.15,-16.9Q23.2,-8.3 23.3,-0L16.2,-0ZM19.8,-35L19.8,-38.3L44,-38.3L44,-35L19.8,-35ZM43.3,-24.4L42,-35.4L42,-37.9L43.3,-48.7L46.5,-48.7L46.5,-24.4L43.3,-24.4ZM5.6,-69.4L5.6,-72.3L19.8,-72.3L19.8,-68.4L18.8,-68.4L5.6,-69.4ZM54.8,-54.8L52,-71.5L55.5,-68.9L19.8,-68.9L19.8,-72.3L57.8,-72.3L58.6,-54.8L54.8,-54.8Z"></path><path transform="translate(629 200)" d="M29.2,1.4Q23.1,1.4 17.6,-1.5Q12.1,-4.4 8.65,-10.35Q5.2,-16.3 5.2,-25.3Q5.2,-34.3 8.7,-40.3Q12.2,-46.3 17.7,-49.25Q23.2,-52.2 29.2,-52.2Q35.3,-52.2 40.8,-49.25Q46.3,-46.3 49.8,-40.3Q53.3,-34.3 53.3,-25.3Q53.3,-16.3 49.8,-10.35Q46.3,-4.4 40.8,-1.5Q35.3,1.4 29.2,1.4ZM29.2,-1.6Q37.2,-1.6 41.85,-7.75Q46.5,-13.9 46.5,-25.2Q46.5,-36.5 41.85,-42.8Q37.2,-49.1 29.2,-49.1Q21.2,-49.1 16.55,-42.8Q11.9,-36.5 11.9,-25.2Q11.9,-13.9 16.55,-7.75Q21.2,-1.6 29.2,-1.6Z"></path><path transform="translate(687 200)" d="M4.4,-0L4.4,-2.7L15.5,-3.9L17.8,-3.9L29.2,-2.7L29.2,-0L4.4,-0ZM13.1,-0Q13.2,-2.4 13.25,-6.45Q13.3,-10.5 13.35,-14.9Q13.4,-19.3 13.4,-22.6L13.4,-28.1Q13.4,-33.3 13.35,-37.55Q13.3,-41.8 13.1,-45.5L3.9,-45.9L3.9,-48.5L17.6,-51.9L18.9,-51.1L19.5,-37.1L19.5,-37L19.5,-22.6Q19.5,-19.3 19.55,-14.9Q19.6,-10.5 19.65,-6.45Q19.7,-2.4 19.8,-0L13.1,-0ZM19.4,-31.8L17.7,-36.7L19.1,-36.7Q20.7,-41.3 23.4,-44.8Q26.1,-48.3 29.45,-50.25Q32.8,-52.2 36.4,-52.2Q39.1,-52.2 41.15,-51.2Q43.2,-50.2 43.9,-48.6Q43.9,-46.2 42.8,-44.9Q41.7,-43.6 39.3,-43.6Q37.7,-43.6 36.35,-44.4Q35,-45.2 33.3,-46.8L31,-48.8L35.9,-48.8Q30.3,-47.7 26.3,-43.6Q22.3,-39.5 19.4,-31.8Z"></path><path transform="translate(732 200)" d=""></path><path transform="translate(758 200)" d="M30,0.8L9.7,-72.3L16.4,-72.3L34.1,-6.8L32.3,-6.8L32.8,-8.3L52,-72.3L54.9,-72.3L74.6,-6.5L72.9,-6.5L73.3,-8.1L89.9,-72.3L93.7,-72.3L74.3,0.8L70.8,0.8L51.1,-64.4L52.9,-64.4L52.4,-62.9L33.5,0.8L30,0.8ZM1.3,-69.4L1.3,-72.3L28,-72.3L28,-69.4L15.5,-68.4L13.5,-68.4L1.3,-69.4ZM40.5,-69.4L40.5,-72.3L67.1,-72.3L67.1,-69.4L54.8,-68.4L52.6,-68.4L40.5,-69.4ZM78.5,-69.4L78.5,-72.3L102.9,-72.3L102.9,-69.4L91.6,-68.4L89.8,-68.4L78.5,-69.4Z"></path><path transform="translate(853 200)" d="M29.8,1.4Q22.7,1.4 17.1,-1.5Q11.5,-4.4 8.35,-10.35Q5.2,-16.3 5.2,-25.2Q5.2,-33.4 8.45,-39.45Q11.7,-45.5 17.1,-48.85Q22.5,-52.2 28.9,-52.2Q35.1,-52.2 39.55,-49.55Q44,-46.9 46.4,-42.35Q48.8,-37.8 48.8,-32Q48.8,-28.3 48.2,-26L8.2,-26L8.2,-29L38.7,-29Q41.1,-29 41.95,-30.25Q42.8,-31.5 42.8,-34.1Q42.8,-40.4 39.15,-44.75Q35.5,-49.1 28.8,-49.1Q24,-49.1 20.1,-46.3Q16.2,-43.5 13.9,-38.35Q11.6,-33.2 11.6,-26.3Q11.6,-18.3 14.1,-13.1Q16.6,-7.9 21,-5.45Q25.4,-3 31.1,-3Q36.4,-3 40.45,-4.8Q44.5,-6.6 47.7,-10.2L49.2,-8.8Q45.9,-4.1 41.1,-1.35Q36.3,1.4 29.8,1.4Z"></path><path transform="translate(906 200)" d="M4.4,-0L4.4,-2.7L13.2,-3.5Q13.3,-6.3 13.3,-9.7Q13.3,-13.1 13.35,-16.5Q13.4,-19.9 13.4,-22.6L13.4,-74.2L4.2,-74.6L4.2,-77.3L18.1,-80L19.7,-79.1L19.4,-63.7L19.4,-42.6L19.5,-41.6L19.5,-8.2L19.5,-8.1L18.7,0.8L4.4,-0ZM35.7,1.4Q31.3,1.4 26.65,-0.8Q22,-3 18.1,-8.5L17,-8.5L18.1,-11.3Q22.3,-6.7 26.2,-4.7Q30.1,-2.7 34.4,-2.7Q38.8,-2.7 42.5,-5.05Q46.2,-7.4 48.45,-12.5Q50.7,-17.6 50.7,-25.8Q50.7,-36.9 46.2,-42.55Q41.7,-48.2 34.6,-48.2Q32.1,-48.2 29.4,-47.4Q26.7,-46.6 23.85,-44.55Q21,-42.5 17.7,-38.8L16.7,-41.7L17.7,-41.7Q21.8,-47.3 26.8,-49.75Q31.8,-52.2 36.7,-52.2Q42.8,-52.2 47.4,-48.95Q52,-45.7 54.65,-39.8Q57.3,-33.9 57.3,-26Q57.3,-17.9 54.6,-11.7Q51.9,-5.5 47.05,-2.05Q42.2,1.4 35.7,1.4Z"></path></svg>