<?xml version="1.0" standalone="no"?><!DOCTYPE svg PUBLIC "-//W3C//DTD SVG 1.1//EN" "http://www.w3.org/Graphics/SVG/1.1/DTD/svg11.dtd"><svg class="icon" width="200px" height="200.00px" viewBox="0 0 1024 1024" version="1.1" xmlns="http://www.w3.org/2000/svg"><path fill="#dcdee0" d="M197.333333 281.653333a48.48 48.48 0 1 0 48.48 48.48A48.48 48.48 0 0 0 197.333333 281.653333z"  /><path fill="#dcdee0" d="M970.666667 170.666667H518.613333a5.333333 5.333333 0 0 0-4.586666 2.666666l-64 111.68a5.333333 5.333333 0 0 0 0 5.333334l53.813333 97.44a5.333333 5.333333 0 0 1 0 5.653333L408.266667 530.56a1.066667 1.066667 0 0 1-1.973334-0.746667L426.666667 389.333333a4.906667 4.906667 0 0 0-0.426667-2.88l-43.2-97.386666a5.333333 5.333333 0 0 1 0-3.946667L421.333333 177.813333a5.333333 5.333333 0 0 0-4.906666-7.146666H42.666667a5.333333 5.333333 0 0 0-5.333334 5.333333v672a5.333333 5.333333 0 0 0 5.333334 5.333333h928a5.333333 5.333333 0 0 0 5.333333-5.333333V176a5.333333 5.333333 0 0 0-5.333333-5.333333z m-69.333334 456.053333a5.333333 5.333333 0 0 1-9.28 3.466667l-215.413333-244.32a5.333333 5.333333 0 0 0-8 0l-291.84 331.093333a5.333333 5.333333 0 0 1-7.466667 0.48l-167.733333-142.933333a5.333333 5.333333 0 0 0-6.88 0l-73.973333 63.04a5.333333 5.333333 0 0 1-8.746667-4.053334V250.666667a5.333333 5.333333 0 0 1 5.333333-5.333334h207.52l-13.493333 50.773334a5.333333 5.333333 0 0 0 0.746667 4.373333l70.773333 102.933333a5.333333 5.333333 0 0 1 0.96 3.413334l-14.24 195.093333a1.12 1.12 0 0 0 1.92 0.8l180.16-200.853333a5.333333 5.333333 0 0 0 1.12-5.333334l-32-101.066666a5.333333 5.333333 0 0 1 0.64-4.586667l31.2-45.546667H896a5.333333 5.333333 0 0 1 5.333333 5.333334z"  /></svg>